<?xml version="1.0" encoding="utf-8"?>
<!-- Generator: Adobe Illustrator 17.0.2, SVG Export Plug-In . SVG Version: 6.00 Build 0)  -->
<!DOCTYPE svg PUBLIC "-//W3C//DTD SVG 1.1//EN" "http://www.w3.org/Graphics/SVG/1.1/DTD/svg11.dtd">
<svg version="1.1" id="Layer_1" xmlns="http://www.w3.org/2000/svg" xmlns:xlink="http://www.w3.org/1999/xlink" x="0px" y="0px"
	 width="281.527px" height="46.225px" viewBox="0 0 281.527 46.225" enable-background="new 0 0 281.527 46.225"
	 xml:space="preserve">
<g>
	<g>
		<path fill="#75787D" d="M182.368,26.639h7.022l-2.672-7.076c-0.223-0.555-0.492-1.325-0.806-2.309
			c-0.242,0.859-0.505,1.638-0.792,2.336L182.368,26.639z M189.847,27.874h-7.976l-2.74,6.928h-1.517l7.895-19.711h0.873
			l7.733,19.711h-1.544L189.847,27.874z"/>
		<path fill="#75787D" d="M206.463,34.802v-9.466c0-1.468-0.309-2.535-0.927-3.202c-0.617-0.667-1.576-1-2.873-1
			c-1.745,0-3.024,0.441-3.834,1.323c-0.81,0.881-1.215,2.311-1.215,4.29v8.056h-1.329V20.207h1.128l0.255,2h0.08
			c0.949-1.521,2.637-2.282,5.062-2.282c3.312,0,4.968,1.777,4.968,5.33v9.547H206.463z"/>
		<path fill="#75787D" d="M215.72,33.862c1.557,0,2.786-0.445,3.686-1.336c0.9-0.891,1.349-2.129,1.349-3.713v-1.437l-2.551,0.108
			c-2.05,0.098-3.512,0.418-4.384,0.959c-0.873,0.542-1.309,1.385-1.309,2.531c0,0.913,0.28,1.622,0.839,2.128
			C213.91,33.609,214.699,33.862,215.72,33.862 M221.091,34.802l-0.337-2.31h-0.107c-0.734,0.939-1.488,1.604-2.262,1.993
			c-0.775,0.39-1.69,0.584-2.745,0.584c-1.432,0-2.547-0.367-3.343-1.101c-0.797-0.733-1.195-1.749-1.195-3.047
			c0-1.424,0.594-2.53,1.779-3.317c1.186-0.787,2.902-1.204,5.148-1.249l2.78-0.08v-0.967c0-1.387-0.282-2.435-0.846-3.142
			c-0.564-0.706-1.473-1.06-2.726-1.06c-1.352,0-2.753,0.376-4.202,1.128l-0.498-1.155c1.603-0.751,3.187-1.128,4.753-1.128
			c1.602,0,2.8,0.417,3.592,1.249c0.792,0.833,1.189,2.131,1.189,3.893v9.708H221.091z"/>
	</g>
	<rect x="226.523" y="13.91" fill="#75787D" width="1.329" height="20.892"/>
	<g>
		<path fill="#75787D" d="M230.021,20.207h1.369l3.089,8.191c0.939,2.515,1.535,4.212,1.786,5.089h0.08
			c0.376-1.155,0.989-2.878,1.84-5.169l3.088-8.11h1.37l-6.539,16.958c-0.528,1.378-0.971,2.309-1.329,2.793
			c-0.358,0.483-0.777,0.846-1.255,1.087c-0.479,0.242-1.059,0.362-1.739,0.362c-0.51,0-1.078-0.093-1.705-0.282v-1.155
			c0.519,0.143,1.079,0.215,1.678,0.215c0.456,0,0.859-0.108,1.208-0.323s0.665-0.549,0.947-1s0.609-1.168,0.98-2.149
			c0.371-0.98,0.611-1.618,0.719-1.913L230.021,20.207z"/>
		<path fill="#75787D" d="M248.664,33.889c0.841,0,1.575-0.072,2.202-0.215v1.074c-0.645,0.215-1.387,0.322-2.229,0.322
			c-1.288,0-2.24-0.344-2.853-1.034c-0.613-0.689-0.92-1.772-0.92-3.25v-9.426h-2.162v-0.778l2.162-0.604l0.671-3.303h0.685v3.531
			h4.283v1.155h-4.283v9.238c0,1.119,0.197,1.947,0.59,2.484C247.205,33.621,247.822,33.889,248.664,33.889"/>
		<path fill="#75787D" d="M255.076,34.802h-1.329V20.207h1.329V34.802z M253.559,16.152c0-0.859,0.282-1.289,0.846-1.289
			c0.277,0,0.495,0.112,0.651,0.336c0.156,0.223,0.235,0.542,0.235,0.953c0,0.403-0.079,0.721-0.235,0.953
			c-0.156,0.233-0.374,0.35-0.651,0.35C253.841,17.454,253.559,17.02,253.559,16.152"/>
		<path fill="#75787D" d="M265.515,35.07c-2.086,0-3.719-0.657-4.901-1.974c-1.182-1.315-1.772-3.15-1.772-5.504
			c0-2.417,0.613-4.299,1.839-5.646c1.226-1.347,2.905-2.021,5.035-2.021c1.262,0,2.471,0.22,3.625,0.659l-0.362,1.181
			c-1.262-0.421-2.358-0.632-3.289-0.632c-1.791,0-3.146,0.553-4.068,1.659c-0.922,1.105-1.383,2.697-1.383,4.773
			c0,1.969,0.461,3.511,1.383,4.625c0.922,1.114,2.211,1.672,3.867,1.672c1.325,0,2.555-0.237,3.693-0.712v1.236
			C268.25,34.842,267.028,35.07,265.515,35.07"/>
		<path fill="#75787D" d="M281.527,31.002c0,1.306-0.497,2.312-1.491,3.014s-2.404,1.054-4.229,1.054c-1.952,0-3.5-0.299-4.646-0.9
			v-1.437c1.468,0.735,3.016,1.102,4.646,1.102c1.441,0,2.535-0.24,3.283-0.719c0.747-0.479,1.121-1.117,1.121-1.913
			c0-0.734-0.298-1.351-0.893-1.854c-0.595-0.501-1.573-0.993-2.934-1.476c-1.459-0.528-2.483-0.983-3.074-1.363
			c-0.591-0.38-1.036-0.809-1.336-1.289c-0.301-0.479-0.45-1.062-0.45-1.753c0-1.091,0.458-1.955,1.376-2.591
			c0.917-0.635,2.2-0.954,3.846-0.954c1.576,0,3.07,0.296,4.485,0.887l-0.497,1.208c-1.432-0.591-2.762-0.887-3.988-0.887
			c-1.19,0-2.135,0.197-2.833,0.591c-0.699,0.393-1.048,0.94-1.048,1.638c0,0.761,0.271,1.369,0.812,1.826
			c0.542,0.457,1.6,0.967,3.176,1.531c1.315,0.474,2.273,0.902,2.874,1.282c0.599,0.38,1.049,0.812,1.349,1.295
			S281.527,30.349,281.527,31.002"/>
		<path fill="#75787D" d="M135.793,29.143c0.827-0.837,0.902-1.993,0.902-2.644c0-2.601-1.556-6.653-4.541-6.653
			c-0.941,0-1.949,0.465-2.527,1.191c-0.612,0.76-0.795,1.732-0.795,2.677c0,2.424,1.407,6.446,4.51,6.446
			C134.236,30.16,135.213,29.724,135.793,29.143 M134.744,36.016c-0.286-0.033-0.468-0.033-0.824-0.033
			c-0.329,0-2.277,0.067-3.79,0.574c-0.793,0.294-3.101,1.167-3.101,3.732c0,2.566,2.495,4.417,6.351,4.417
			c3.452,0,5.294-1.669,5.294-3.91C138.674,38.95,137.486,37.982,134.744,36.016 M137.307,19.949
			c0.825,0.693,2.557,2.137,2.557,4.886c0,2.682-1.52,3.945-3.033,5.145c-0.463,0.472-1.005,0.972-1.005,1.774
			c0,0.793,0.542,1.226,0.936,1.552l1.298,1.011c1.585,1.339,3.029,2.564,3.029,5.07c0,3.397-3.283,6.838-9.484,6.838
			c-5.224,0-7.746-2.497-7.746-5.179c0-1.299,0.644-3.141,2.778-4.413c2.23-1.371,5.261-1.556,6.881-1.665
			c-0.5-0.651-1.086-1.339-1.086-2.46c0-0.612,0.186-0.978,0.365-1.408c-0.4,0.036-0.793,0.071-1.156,0.071
			c-3.82,0-5.981-2.864-5.981-5.682c0-1.67,0.762-3.508,2.307-4.847c2.05-1.706,4.502-1.996,6.45-1.996h7.426l-2.31,1.303H137.307z"
			/>
		<path fill="#75787D" d="M119.107,32.513c0.865-1.156,1.086-2.594,1.086-4.014c0-3.178-1.514-9.245-5.975-9.245
			c-1.192,0-2.381,0.465-3.245,1.226c-1.401,1.262-1.659,2.85-1.659,4.409c0,3.578,1.771,9.466,6.124,9.466
			C116.838,34.355,118.282,33.673,119.107,32.513 M114.609,35.438c-5.721,0-8.78-4.483-8.78-8.524c0-4.734,3.847-8.781,9.322-8.781
			c5.287,0,8.599,4.156,8.599,8.524C123.75,30.921,120.478,35.438,114.609,35.438"/>
		<path fill="#75787D" d="M99.602,32.513c0.869-1.156,1.078-2.594,1.078-4.014c0-3.178-1.508-9.245-5.975-9.245
			c-1.188,0-2.369,0.465-3.237,1.226c-1.403,1.262-1.656,2.85-1.656,4.409c0,3.578,1.763,9.466,6.114,9.466
			C97.335,34.355,98.776,33.673,99.602,32.513 M95.102,35.438c-5.725,0-8.78-4.483-8.78-8.524c0-4.734,3.849-8.781,9.321-8.781
			c5.293,0,8.606,4.156,8.606,8.524C104.249,30.921,100.971,35.438,95.102,35.438"/>
		<path fill="#75787D" d="M83.569,34.871l-5.172,1.199c-2.101,0.327-3.978,0.624-5.968,0.624c-9.987,0-13.782-7.379-13.782-13.155
			c0-7.047,5.39-13.582,14.61-13.582c1.955,0,3.843,0.288,5.541,0.759c2.707,0.764,3.98,1.716,4.771,2.251l-2.996,2.867
			l-1.269,0.292l0.903-1.453c-1.234-1.196-3.473-3.405-7.741-3.405c-5.719,0-10.024,4.355-10.024,10.711
			c0,6.828,4.924,13.257,12.808,13.257c2.318,0,3.51-0.477,4.596-0.91V28.48l-5.463,0.285l2.888-1.556h7.671l-0.936,0.908
			c-0.256,0.214-0.294,0.285-0.363,0.573c-0.037,0.333-0.074,1.391-0.074,1.755V34.871z"/>
		<path fill="#75787D" d="M148.742,33.832c-1.197-0.114-1.447-0.333-1.447-1.745v-0.404V11.526c0.01-0.082,0.014-0.157,0.023-0.235
			c0.145-1.278,0.51-1.488,1.628-2.148h-5.176l-2.718,1.308h2.771v0.019l-0.004-0.006v21.219v1.202c0,0.727-0.145,0.832-0.98,1.917
			h6.405l1.35-0.798C149.975,33.94,149.357,33.896,148.742,33.832"/>
		<path fill="#75787D" d="M160.091,23.411c0.684-0.254,1.041-0.468,1.041-0.97c0-1.451-1.617-3.112-3.558-3.112
			c-1.439,0-4.136,1.127-4.136,5.02c0,0.614,0.078,1.263,0.108,1.906L160.091,23.411z M163.467,34.16
			c-0.395,0.22-0.793,0.475-1.188,0.652c-1.182,0.546-2.403,0.684-3.483,0.684c-1.15,0-2.943-0.069-4.786-1.413
			c-2.538-1.792-3.665-4.902-3.665-7.607c0-5.592,4.536-8.332,8.235-8.332c1.296,0,2.632,0.329,3.7,1.007
			c1.797,1.188,2.27,2.74,2.515,3.571l-8.437,3.427l-2.775,0.219c0.896,4.584,3.991,7.251,7.408,7.251
			c1.829,0,3.156-0.648,4.38-1.256L163.467,34.16z"/>
		<path fill="#F05721" d="M22.778,37.963L12.656,27.838L0,40.494v1.264c0,2.097,1.7,3.796,3.796,3.796h37.963
			c2.097,0,3.796-1.7,3.796-3.796V15.184L22.778,37.963z"/>
		<path fill="#F7991C" d="M22.778,27.838L45.556,5.061V3.796C45.556,1.7,43.856,0,41.761,0h-0.002h-0.001H3.797H3.796H3.795
			C1.699,0,0,1.7,0,3.796v26.576l12.655-12.656L22.778,27.838z"/>
	</g>
	<polygon fill="#FFFFFF" points="22.778,27.838 12.656,17.716 0,30.372 0,40.494 12.656,27.838 22.778,37.963 45.555,15.184 
		45.555,5.062 	"/>
	<polygon fill="#F7991C" points="17.717,22.776 12.656,27.837 17.718,32.899 	"/>
</g>
</svg>
