<?xml version="1.0" encoding="utf-8"?>
<!-- Generator: Adobe Illustrator 18.1.1, SVG Export Plug-In . SVG Version: 6.00 Build 0)  -->
<!DOCTYPE svg PUBLIC "-//W3C//DTD SVG 1.1//EN" "http://www.w3.org/Graphics/SVG/1.1/DTD/svg11.dtd">
<svg version="1.1" id="Layer_1" xmlns="http://www.w3.org/2000/svg" xmlns:xlink="http://www.w3.org/1999/xlink" x="0px" y="0px"
	 viewBox="572.5 982.5 135 35" style="enable-background:new 572.5 982.5 135 35;" xml:space="preserve">
<g>
	<g>
		<g>
			<path style="fill:#404040;" d="M612.463,994.761c1.364,0,3.604,0.39,3.604,2.007c0,0.817-0.545,1.422-1.246,1.422
				c-0.78,0-0.993-0.507-2.181-0.507c-1.538,0-2.259,1.168-2.259,2.571c0,1.403,0.741,2.571,2.085,2.571
				c1.305,0,1.909-0.525,2.357-0.525c0.701,0,1.246,0.701,1.246,1.344c0,1.52-2.396,2.104-3.604,2.104
				c-3.077,0-5.122-2.434-5.122-5.493C607.34,997.197,609.384,994.761,612.463,994.761z"/>
			<path style="fill:#404040;" d="M616.768,996.534c0-0.876,0.623-1.578,1.519-1.578c0.819,0,1.325,0.525,1.519,0.974
				c0.506-0.604,1.246-1.168,2.103-1.168c0.78,0,1.558,0.623,1.558,1.578c0,1.052-0.799,1.305-1.909,1.636
				c-1.325,0.39-1.754,0.741-1.754,2.299v3.701c0,0.876-0.623,1.578-1.519,1.578s-1.519-0.701-1.519-1.578v-7.442H616.768z"/>
			<path style="fill:#404040;" d="M633.46,1003.975c0,0.876-0.623,1.578-1.519,1.578c-0.741,0-1.207-0.507-1.422-0.974
				c-0.682,0.837-1.462,1.168-2.61,1.168c-2.649,0-4.695-2.434-4.695-5.493s2.046-5.493,4.695-5.493c1.149,0,1.928,0.331,2.61,1.168
				c0.214-0.468,0.682-0.974,1.422-0.974c0.896,0,1.519,0.701,1.519,1.578V1003.975z M626.252,1000.254
				c0,1.403,0.741,2.571,2.085,2.571c1.344,0,2.085-1.168,2.085-2.571c0-1.403-0.741-2.571-2.085-2.571
				C626.993,997.683,626.252,998.852,626.252,1000.254z"/>
			<path style="fill:#404040;" d="M638.368,997.877h-2.669c-0.974,0-1.597-0.429-1.597-1.403c0-0.974,0.623-1.403,1.597-1.403h5.843
				c0.564,0,0.857,0.078,1.148,0.37c0.194,0.194,0.272,0.449,0.272,0.721c0,0.272-0.135,0.525-0.39,0.876l-4.168,5.591h3.214
				c0.974,0,1.597,0.429,1.597,1.403c0,0.974-0.623,1.403-1.597,1.403h-6.155c-0.564,0-0.741-0.059-1.013-0.214
				c-0.39-0.253-0.449-0.662-0.449-0.856c0-0.233,0.02-0.507,0.468-1.13L638.368,997.877z"/>
			<path style="fill:#404040;" d="M646.354,1004.441l-2.591-6.175c-0.351-0.817-0.643-1.538-0.643-1.889
				c0-0.896,0.721-1.422,1.48-1.422c0.741,0,1.266,0.39,1.558,1.149l1.793,4.636l1.695-4.129c0.39-0.935,0.817-1.656,1.656-1.656
				c0.935,0,1.558,0.604,1.558,1.538c0,0.449-0.214,0.974-0.37,1.325l-4.499,10.499c-0.351,0.799-0.604,1.442-1.656,1.442
				c-1.091,0-1.499-0.857-1.499-1.364c0-0.525,0.156-0.876,0.507-1.675L646.354,1004.441z"/>
			<path style="fill:#404040;" d="M656.424,1001.247c0,0.643,0.488,1.695,2.435,1.695c1.501,0,2.416-0.954,3.117-0.954
				c0.682,0,1.266,0.525,1.266,1.305c0,1.48-2.473,2.454-4.772,2.454c-3.272,0-5.318-2.434-5.318-5.493
				c0-2.922,2.201-5.493,5.318-5.493c3,0,4.928,2.512,4.928,5.162c0,1.072-0.506,1.325-1.48,1.325H656.424L656.424,1001.247z
				 M660.359,999.164c0-0.682-0.78-1.83-1.967-1.83c-1.188,0-1.967,1.15-1.967,1.83H660.359z"/>
			<path style="fill:#404040;" d="M674.228,1004.423c0,3.876-2.532,5.336-5.512,5.336c-1.578,0-4.538-0.604-4.538-2.259
				c0-0.682,0.662-1.325,1.266-1.325c0.876,0,1.442,0.896,3.214,0.896c1.889,0,2.532-0.993,2.532-2.688h-0.039
				c-0.662,0.935-1.754,1.168-2.767,1.168c-2.941,0-4.401-2.551-4.401-5.299c0-3.059,2.046-5.493,4.695-5.493
				c1.148,0,1.928,0.331,2.61,1.168c0.214-0.468,0.682-0.974,1.421-0.974c0.896,0,1.519,0.701,1.519,1.578v7.892H674.228z
				 M669.106,997.683c-1.344,0-2.085,1.168-2.085,2.571c0,1.48,0.741,2.61,2.085,2.61c1.344,0,2.083-1.129,2.083-2.61
				C671.189,998.852,670.449,997.683,669.106,997.683z"/>
			<path style="fill:#404040;" d="M685.408,1004.423c0,3.876-2.532,5.336-5.512,5.336c-1.578,0-4.538-0.604-4.538-2.259
				c0-0.682,0.662-1.325,1.266-1.325c0.876,0,1.442,0.896,3.214,0.896c1.889,0,2.532-0.993,2.532-2.688h-0.039
				c-0.662,0.935-1.754,1.168-2.767,1.168c-2.941,0-4.401-2.551-4.401-5.299c0-3.059,2.046-5.493,4.695-5.493
				c1.148,0,1.928,0.331,2.61,1.168c0.214-0.468,0.682-0.974,1.421-0.974c0.896,0,1.519,0.701,1.519,1.578v7.892H685.408z
				 M680.286,997.683c-1.344,0-2.085,1.168-2.085,2.571c0,1.48,0.741,2.61,2.085,2.61c1.344,0,2.085-1.129,2.085-2.61
				C682.369,998.852,681.63,997.683,680.286,997.683z"/>
		</g>
		<g>
			<path style="fill:#404040;" d="M687.732,1004.705h-0.306c-0.133,0-0.19-0.101-0.19-0.199c0-0.102,0.069-0.2,0.19-0.2h1.031
				c0.12,0,0.19,0.098,0.19,0.2c0,0.099-0.054,0.199-0.19,0.199h-0.306v1.456c0,0.144-0.09,0.227-0.211,0.227
				s-0.209-0.081-0.209-0.227V1004.705L687.732,1004.705z"/>
			<path style="fill:#404040;" d="M688.944,1004.511c0.018-0.104,0.126-0.224,0.276-0.224c0.14,0,0.25,0.105,0.28,0.209l0.33,1.149
				h0.006l0.331-1.149c0.032-0.105,0.14-0.209,0.28-0.209c0.148,0,0.257,0.12,0.275,0.224l0.26,1.618
				c0.003,0.017,0.003,0.035,0.003,0.048c0,0.128-0.09,0.209-0.202,0.209c-0.141,0-0.199-0.068-0.218-0.205l-0.166-1.179h-0.006
				l-0.336,1.215c-0.02,0.069-0.072,0.169-0.224,0.169c-0.152,0-0.205-0.099-0.224-0.169l-0.334-1.215h-0.008l-0.166,1.179
				c-0.02,0.137-0.077,0.205-0.218,0.205c-0.111,0-0.202-0.081-0.202-0.209c0-0.015,0-0.032,0.001-0.048L688.944,1004.511z"/>
		</g>
	</g>
	<g>
		<path style="fill:#8ABC00;" d="M603.985,996.043c0-5.547-5.034-10.043-7.485-10.043c-2.451,0-7.485,4.495-7.485,10.043
			c0,2.68,0.784,5.113,2.059,6.913c0.432,0.906,1.107,1.865,1.804,2.855c0.803,1.14,1.621,2.309,2.087,3.431
			c-0.429,0.167-0.769,0.508-0.937,0.934c0.402,0.091,0.842,0.168,1.311,0.22c1.26,0.14,2.382,0.078,3.024-0.13
			c-0.405,0.332-1.624,0.513-3.05,0.417c-0.498-0.033-0.965-0.097-1.38-0.182c-0.015,0.091-0.025,0.182-0.025,0.277v2.063
			c0,0.913,0.74,1.158,1.652,1.158h2.297c0.912,0,1.652-0.244,1.652-1.158v-2.063c0-0.784-0.548-1.438-1.281-1.606
			c0.288-0.667,0.623-1.321,0.951-1.962l0.325-0.638l0.234-0.468c0.182-0.364,0.483-0.968,0.793-1.578h-0.028
			C602.595,1002.747,603.985,999.614,603.985,996.043z M599.326,1005.9l-0.232,0.466l-0.323,0.635
			c-0.355,0.691-0.715,1.399-1.021,2.126h-1.019v-3.042h-0.46v3.042h-0.709c-0.048,0-0.094,0.01-0.14,0.013
			c-0.48-1.193-1.332-2.411-2.166-3.595c-0.219-0.31-0.435-0.618-0.642-0.921c1.134,0.925,2.464,1.459,3.888,1.459
			c1.153,0,2.245-0.35,3.221-0.976C599.599,1005.353,599.468,1005.615,599.326,1005.9z M599.229,1005.118
			c0,0,2.339-2.549,3.041-6.165c-0.876,1.067-2.397,1.774-4.131,1.774c-2.714,0-4.917-1.733-4.917-3.871s2.202-3.872,4.917-3.872
			c1.686,0,3.175,0.669,4.061,1.688c-1.426-5.907-7.847-7.387-7.847-7.387s0.401-0.514,1.271-0.763
			c0.739-0.212,1.101-0.158,1.57-0.019c0.532,0.158,6.202,3.315,6.202,9.349C603.395,1001.888,599.229,1005.118,599.229,1005.118z"
			/>
		<g>
			<path style="fill:#8ABC00;" d="M599.915,995.812c-0.438,0-0.828-0.228-1.389-0.228c-0.998,0-1.472,0.596-1.472,1.199
				c0,0.58,0.521,1.183,1.472,1.183c0.44,0,1.096-0.244,1.304-0.244c0.414,0,0.754,0.235,0.754,0.513
				c0,0.603-1.511,0.807-2.142,0.807c-1.889,0-3.142-1.035-3.142-2.262c0-1.192,1.29-2.276,3.142-2.276
				c0.693,0,2.142,0.17,2.142,0.743C600.584,995.495,600.33,995.812,599.915,995.812z"/>
		</g>
	</g>
</g>
</svg>
