<?xml version="1.0" encoding="iso-8859-1"?>
<!-- Generator: Adobe Illustrator 19.1.0, SVG Export Plug-In . SVG Version: 6.00 Build 0)  -->
<svg version="1.1" xmlns="http://www.w3.org/2000/svg" xmlns:xlink="http://www.w3.org/1999/xlink" x="0px" y="0px"
	 viewBox="0 0 16 16" style="enable-background:new 0 0 16 16;" xml:space="preserve">
<g id="tag">
</g>
<g id="trigger">
</g>
<g id="options">
</g>
<g id="edit">
</g>
<g id="del">
</g>
<g id="home">
</g>
<g id="logout">
</g>
<g id="profile">
</g>
<g id="copy">
</g>
<g id="_x28__x3F__x29_">
</g>
<g id="_x28__x3F__x29__over">
</g>
<g id="_x28_x_x29_">
</g>
<g id="x">
</g>
<g id="menu">
</g>
<g id="_x3E__x3E_">
</g>
<g id="_x3E_">
	<g>
		<path d="M5.523,3.045L4.826,3.742C4.634,3.935,4.537,4.169,4.537,4.444c0,0.276,0.097,0.51,0.29,0.703l2.858,2.848l-2.865,2.853
			c-0.192,0.193-0.289,0.427-0.289,0.703c0,0.276,0.097,0.51,0.29,0.703l0.699,0.699c0.193,0.193,0.427,0.29,0.703,0.29
			c0.276,0,0.51-0.096,0.702-0.288l3.556-3.556l0.697-0.697C11.372,8.509,11.468,8.275,11.468,8c0-0.276-0.096-0.51-0.29-0.703
			l-0.699-0.699L6.928,3.047c-0.193-0.193-0.427-0.29-0.703-0.29C5.95,2.757,5.716,2.853,5.523,3.045L5.523,3.045z M5.523,3.045"/>
	</g>
</g>
<g id="Layer_22">
</g>
<g id="Layer_17">
</g>
<g id="Layer_18">
</g>
<g id="Layer_19">
</g>
<g id="Layer_23">
</g>
<g id="Layer_20">
</g>
<g id="Layer_21">
</g>
<g id="Layer_25">
</g>
<g id="Layer_24">
</g>
</svg>
