<?xml version="1.0" encoding="iso-8859-1"?>
<!-- Generator: Adobe Illustrator 19.1.0, SVG Export Plug-In . SVG Version: 6.00 Build 0)  -->
<svg version="1.1" xmlns="http://www.w3.org/2000/svg" xmlns:xlink="http://www.w3.org/1999/xlink" x="0px" y="0px"
	 viewBox="0 0 16 16" style="enable-background:new 0 0 16 16;" xml:space="preserve">
<g id="tag">
</g>
<g id="trigger">
</g>
<g id="options">
</g>
<g id="edit">
</g>
<g id="del">
</g>
<g id="home">
</g>
<g id="logout">
</g>
<g id="profile">
</g>
<g id="copy">
</g>
<g id="_x28__x3F__x29_">
</g>
<g id="_x28__x3F__x29__over">
</g>
<g id="_x28_x_x29_">
</g>
<g id="x">
</g>
<g id="menu">
</g>
<g id="_x3E__x3E_">
</g>
<g id="_x3E_">
</g>
<g id="Layer_22">
</g>
<g id="Layer_17">
</g>
<g id="Layer_18">
</g>
<g id="Layer_19">
</g>
<g id="Layer_23">
</g>
<g id="Layer_20">
</g>
<g id="Layer_21">
</g>
<g id="Layer_25">
</g>
<g id="Layer_24">
</g>
<g id="Layer_26">
	<g>
		<path d="M4.288,0.924L3.934,1.279C3.741,1.471,3.645,1.705,3.645,1.981c0,0.276,0.097,0.51,0.29,0.703l5.354,5.393l-5.298,5.298
			c-0.192,0.193-0.289,0.427-0.289,0.703s0.097,0.51,0.29,0.703l0.295,0.295c0.193,0.193,0.427,0.29,0.703,0.29
			c0.276,0,0.51-0.096,0.702-0.288l5.677-5.677l0.697-0.697C12.259,8.509,12.355,8.275,12.355,8c0-0.276-0.096-0.51-0.29-0.703
			l-0.699-0.699L5.694,0.925c-0.193-0.193-0.427-0.29-0.703-0.29C4.715,0.635,4.481,0.732,4.288,0.924L4.288,0.924z M4.288,0.924"/>
	</g>
</g>
<g id="Layer_27">
</g>
</svg>
