<?xml version="1.0" encoding="iso-8859-1"?>
<!-- Generator: Adobe Illustrator 19.1.0, SVG Export Plug-In . SVG Version: 6.00 Build 0)  -->
<svg version="1.1" xmlns="http://www.w3.org/2000/svg" xmlns:xlink="http://www.w3.org/1999/xlink" x="0px" y="0px"
	 viewBox="0 0 16 16" style="enable-background:new 0 0 16 16;" xml:space="preserve">
<g id="tag">
</g>
<g id="trigger">
</g>
<g id="options">
</g>
<g id="edit">
</g>
<g id="del">
</g>
<g id="home">
</g>
<g id="logout">
</g>
<g id="profile">
</g>
<g id="copy">
</g>
<g id="_x28__x3F__x29_">
</g>
<g id="_x28__x3F__x29__over">
</g>
<g id="_x28_x_x29_">
</g>
<g id="x">
</g>
<g id="menu">
</g>
<g id="_x3E__x3E_">
</g>
<g id="_x3E_">
</g>
<g id="Layer_22">
</g>
<g id="Layer_17">
</g>
<g id="Layer_18">
</g>
<g id="Layer_19">
</g>
<g id="Layer_23">
</g>
<g id="Layer_20">
</g>
<g id="Layer_21">
</g>
<g id="Layer_25">
</g>
<g id="Layer_24">
</g>
<g id="Layer_26">
	<g>
		<path d="M11.712,15.076l0.354-0.355c0.192-0.192,0.289-0.426,0.288-0.702c0-0.276-0.097-0.51-0.29-0.703L6.711,7.923l5.298-5.298
			c0.192-0.193,0.289-0.427,0.289-0.703c0-0.276-0.097-0.51-0.29-0.703l-0.295-0.295c-0.193-0.193-0.427-0.29-0.703-0.29
			c-0.276,0-0.51,0.096-0.702,0.288L4.63,6.601L3.934,7.298C3.741,7.491,3.645,7.725,3.645,8c0,0.276,0.096,0.51,0.29,0.703
			l0.699,0.699l5.672,5.672c0.193,0.193,0.427,0.29,0.703,0.29C11.285,15.365,11.519,15.268,11.712,15.076L11.712,15.076z
			 M11.712,15.076"/>
	</g>
</g>
<g id="Layer_27">
</g>
</svg>
