<?xml version="1.0" encoding="iso-8859-1"?>
<!-- Generator: Adobe Illustrator 18.1.1, SVG Export Plug-In . SVG Version: 6.00 Build 0)  -->
<svg version="1.1" xmlns="http://www.w3.org/2000/svg" xmlns:xlink="http://www.w3.org/1999/xlink" x="0px" y="0px"
	 viewBox="0 0 16 16" style="enable-background:new 0 0 16 16;" xml:space="preserve">
<g id="tag">
</g>
<g id="trigger">
</g>
<g id="options">
</g>
<g id="edit">
</g>
<g id="del">
</g>
<g id="home">
</g>
<g id="logout">
</g>
<g id="profile">
</g>
<g id="copy">
</g>
<g id="_x28__x3F__x29_">
</g>
<g id="_x28__x3F__x29__over">
</g>
<g id="_x28_x_x29_">
</g>
<g id="x">
	<path d="M9.408,8.004l4.401-4.401c0.26-0.26,0.26-0.685,0-0.945L13.35,2.199c-0.26-0.26-0.685-0.26-0.945,0L8.004,6.6L3.603,2.199
		c-0.26-0.26-0.685-0.26-0.945,0L2.199,2.658c-0.26,0.26-0.26,0.685,0,0.945L6.6,8.004l-4.401,4.401c-0.26,0.26-0.26,0.685,0,0.945
		l0.459,0.459c0.26,0.26,0.685,0.26,0.945,0l4.401-4.401l4.401,4.401c0.26,0.26,0.685,0.26,0.945,0l0.459-0.459
		c0.26-0.26,0.26-0.685,0-0.945L9.408,8.004z"/>
</g>
<g id="menu">
</g>
<g id="_x3E__x3E_">
</g>
<g id="_x3E_">
</g>
</svg>
