<?xml version="1.0" encoding="iso-8859-1"?>
<!-- Generator: Adobe Illustrator 18.1.1, SVG Export Plug-In . SVG Version: 6.00 Build 0)  -->
<svg version="1.1" xmlns="http://www.w3.org/2000/svg" xmlns:xlink="http://www.w3.org/1999/xlink" x="0px" y="0px"
	 viewBox="0 0 16 16" style="enable-background:new 0 0 16 16;" xml:space="preserve">
<g id="tag">
</g>
<g id="trigger">
</g>
<g id="options">
</g>
<g id="edit">
</g>
<g id="del">
</g>
<g id="home">
</g>
<g id="logout">
</g>
<g id="profile">
</g>
<g id="copy">
</g>
<g id="_x28__x3F__x29_">
</g>
<g id="_x28__x3F__x29__over">
</g>
<g id="_x28_x_x29_">
	<path d="M7.999,0C3.581,0,0,3.582,0,8c0,4.417,3.581,8,7.998,8C12.418,16,16,12.417,16,8C16,3.582,12.418,0,7.999,0z
		 M11.438,10.166l-1.274,1.272c0,0-2.016-2.162-2.167-2.162c-0.148,0-2.164,2.162-2.164,2.162l-1.274-1.272
		c0,0,2.165-1.986,2.165-2.163c0-0.179-2.165-2.166-2.165-2.166l1.274-1.275c0,0,2.033,2.164,2.164,2.164
		c0.133,0,2.167-2.164,2.167-2.164l1.274,1.275c0,0-2.165,2.015-2.165,2.166C9.273,8.147,11.438,10.166,11.438,10.166z"/>
</g>
<g id="x">
</g>
<g id="menu">
</g>
<g id="_x3E__x3E_">
</g>
<g id="_x3E_">
</g>
</svg>
