<?xml version="1.0" encoding="iso-8859-1"?>
<!-- Generator: Adobe Illustrator 18.1.1, SVG Export Plug-In . SVG Version: 6.00 Build 0)  -->
<svg version="1.1" xmlns="http://www.w3.org/2000/svg" xmlns:xlink="http://www.w3.org/1999/xlink" x="0px" y="0px"
	 viewBox="0 0 16 16" style="enable-background:new 0 0 16 16;" xml:space="preserve">
<g id="tag">
</g>
<g id="trigger">
</g>
<g id="options">
</g>
<g id="edit">
</g>
<g id="del">
</g>
<g id="home">
</g>
<g id="logout">
</g>
<g id="profile">
</g>
<g id="copy">
</g>
<g id="_x28__x3F__x29_">
</g>
<g id="_x28__x3F__x29__over">
</g>
<g id="_x28_x_x29_">
</g>
<g id="x">
</g>
<g id="menu">
</g>
<g id="_x3E__x3E_">
</g>
<g id="_x3E_">
</g>
<g id="Layer_17">
	<path d="M15.13,3.503L8.187,0.394c-0.12-0.044-0.251-0.044-0.371,0L0.873,3.503C0.422,3.67,0.405,4.302,0.846,4.493l6.943,3.018
		c0.136,0.059,0.289,0.059,0.425,0l6.943-3.018C15.598,4.302,15.581,3.67,15.13,3.503z"/>
	<path d="M6.725,15.596l-6.402-2.743C0.128,12.769,0,12.577,0,12.363V6.05c0-0.383,0.391-0.641,0.742-0.49l6.402,2.743
		c0.192,0.082,0.317,0.272,0.317,0.481v6.326C7.462,15.489,7.074,15.745,6.725,15.596z"/>
	<path d="M9.269,15.596l6.402-2.743c0.196-0.084,0.323-0.277,0.323-0.49V6.05c0-0.383-0.391-0.641-0.742-0.49L8.85,8.302
		C8.654,8.386,8.527,8.5,8.527,8.714v6.392C8.527,15.488,8.918,15.746,9.269,15.596z"/>
</g>
</svg>
