<?xml version="1.0" encoding="iso-8859-1"?>
<!-- Generator: Adobe Illustrator 18.1.1, SVG Export Plug-In . SVG Version: 6.00 Build 0)  -->
<svg version="1.1" xmlns="http://www.w3.org/2000/svg" xmlns:xlink="http://www.w3.org/1999/xlink" x="0px" y="0px"
	 viewBox="0 0 16 16" style="enable-background:new 0 0 16 16;" xml:space="preserve">
<g id="tag">
</g>
<g id="trigger">
</g>
<g id="options">
</g>
<g id="edit">
</g>
<g id="del">
</g>
<g id="home">
</g>
<g id="logout">
</g>
<g id="profile">
</g>
<g id="copy">
	<g>
		<path d="M4,1v1H2C1.448,2,1,2.448,1,3v12c0,0.552,0.448,1,1,1h10c0.552,0,1-0.448,1-1v-2h1c0.552,0,1-0.448,1-1V4.414
			c0-0.265-0.105-0.52-0.293-0.707l-3.414-3.414C11.105,0.105,10.851,0,10.586,0H5C4.448,0,4,0.448,4,1z M11,14H3V4h1v9h7V14z M6,11
			V2h2v4c0,0.552,0.448,1,1,1h4v4H6z M13,5h-3V2L13,5z"/>
	</g>
</g>
<g id="_x28__x3F__x29_">
</g>
<g id="_x28__x3F__x29__over">
</g>
<g id="_x28_x_x29_">
</g>
<g id="x">
</g>
<g id="menu">
</g>
<g id="_x3E__x3E_">
</g>
<g id="_x3E_">
</g>
</svg>
