<?xml version="1.0" encoding="iso-8859-1"?>
<!-- Generator: Adobe Illustrator 19.1.0, SVG Export Plug-In . SVG Version: 6.00 Build 0)  -->
<svg version="1.1" xmlns="http://www.w3.org/2000/svg" xmlns:xlink="http://www.w3.org/1999/xlink" x="0px" y="0px"
	 viewBox="0 0 16 16" style="enable-background:new 0 0 16 16;" xml:space="preserve">
<g id="tag">
	<path d="M15.807,13.226L11.93,9.349l-0.783,0.783l-1.044-1.044c1.717-2.212,1.564-5.405-0.468-7.436
		c-2.202-2.202-5.772-2.202-7.974,0c-2.202,2.202-2.202,5.772,0,7.974c2.031,2.031,5.224,2.184,7.436,0.468l1.044,1.044L9.34,11.939
		l3.877,3.877c0.336,0.336,1.019,0.199,1.525-0.307l0.758-0.758C16.005,14.245,16.143,13.562,15.807,13.226z M3.528,7.758
		c-1.169-1.169-1.169-3.071,0-4.24c1.169-1.169,3.071-1.169,4.24,0c1.169,1.169,1.169,3.071,0,4.24
		C6.599,8.927,4.697,8.927,3.528,7.758z"/>
</g>
<g id="trigger">
</g>
<g id="options">
</g>
<g id="edit">
</g>
<g id="del">
</g>
<g id="home">
</g>
<g id="logout">
</g>
<g id="profile">
</g>
<g id="copy">
</g>
<g id="_x28__x3F__x29_">
</g>
<g id="_x28__x3F__x29__over">
</g>
<g id="_x28_x_x29_">
</g>
<g id="x">
</g>
<g id="menu">
</g>
<g id="_x3E__x3E_">
</g>
<g id="_x3E_">
</g>
<g id="Layer_22">
</g>
<g id="Layer_17">
</g>
<g id="Layer_18">
</g>
<g id="Layer_19">
</g>
<g id="Layer_23">
</g>
<g id="Layer_20">
</g>
<g id="Layer_21">
</g>
<g id="Layer_25">
</g>
<g id="Layer_24">
</g>
</svg>
