<?xml version="1.0" encoding="iso-8859-1"?>
<!-- Generator: Adobe Illustrator 18.1.1, SVG Export Plug-In . SVG Version: 6.00 Build 0)  -->
<svg version="1.1" xmlns="http://www.w3.org/2000/svg" xmlns:xlink="http://www.w3.org/1999/xlink" x="0px" y="0px"
	 viewBox="0 0 16 16" style="enable-background:new 0 0 16 16;" xml:space="preserve">
<g id="tag">
</g>
<g id="trigger">
</g>
<g id="options">
</g>
<g id="edit">
</g>
<g id="del">
	<path d="M12.495,1H9V0H6v1H2.533C2.239,1,2,1.049,2,1.344V2.6C2,2.895,2.239,3,2.533,3h10.029C12.857,3,13,2.895,13,2.6V1.391
		C13,1.096,12.789,1,12.495,1z"/>
	<path d="M12.455,4H2.545C2.244,4,2,4.339,2,4.633l1.091,10.783C3.091,15.711,3.335,16,3.636,16h7.727
		c0.301,0,0.545-0.239,0.545-0.533L13,4.633C13,4.339,12.756,4,12.455,4z M5.552,14.073L5.49,14.079
		c-0.275,0.026-0.519-0.176-0.545-0.451L4.302,6.831C4.276,6.556,4.478,6.312,4.753,6.286L4.815,6.28
		C5.09,6.254,5.334,6.456,5.36,6.731l0.643,6.798C6.029,13.803,5.827,14.047,5.552,14.073z M8,14c0,0.294-0.199,0.533-0.5,0.533
		C7.199,14.533,7,14.294,7,14V6.755c0-0.294,0.199-0.533,0.5-0.533c0.301,0,0.5,0.239,0.5,0.533V14z M10.06,13.629
		c-0.026,0.275-0.27,0.477-0.545,0.451l-0.062-0.006c-0.275-0.026-0.477-0.27-0.451-0.545l0.643-6.798
		c0.026-0.275,0.27-0.477,0.545-0.451l0.062,0.006c0.275,0.026,0.477,0.27,0.451,0.545L10.06,13.629z"/>
</g>
<g id="home">
</g>
<g id="logout">
</g>
<g id="profile">
</g>
<g id="copy">
</g>
<g id="_x28__x3F__x29_">
</g>
<g id="_x28__x3F__x29__over">
</g>
<g id="_x28_x_x29_">
</g>
<g id="x">
</g>
<g id="menu">
</g>
<g id="_x3E__x3E_">
</g>
<g id="_x3E_">
</g>
</svg>
