<?xml version="1.0" encoding="iso-8859-1"?>
<!-- Generator: Adobe Illustrator 18.1.1, SVG Export Plug-In . SVG Version: 6.00 Build 0)  -->
<svg version="1.1" xmlns="http://www.w3.org/2000/svg" xmlns:xlink="http://www.w3.org/1999/xlink" x="0px" y="0px"
	 viewBox="0 0 16 16" style="enable-background:new 0 0 16 16;" xml:space="preserve">
<g id="tag">
</g>
<g id="trigger">
</g>
<g id="options">
</g>
<g id="edit">
</g>
<g id="del">
</g>
<g id="home">
</g>
<g id="logout">
</g>
<g id="profile">
</g>
<g id="copy">
</g>
<g id="_x28__x3F__x29_">
</g>
<g id="_x28__x3F__x29__over">
</g>
<g id="_x28_x_x29_">
</g>
<g id="x">
</g>
<g id="menu">
	<path style="fill-rule:evenodd;clip-rule:evenodd;" d="M6.5,14h2c0.552,0,1,0.448,1,1v2c0,0.552-0.448,1-1,1h-2
		c-0.552,0-1-0.448-1-1v-2C5.5,14.448,5.948,14,6.5,14z"/>
	<path style="fill-rule:evenodd;clip-rule:evenodd;" d="M6.5,6h2c0.552,0,1,0.448,1,1v2c0,0.552-0.448,1-1,1h-2
		c-0.552,0-1-0.448-1-1V7C5.5,6.448,5.948,6,6.5,6z"/>
	<path style="fill-rule:evenodd;clip-rule:evenodd;" d="M6.5-2h2c0.552,0,1,0.448,1,1v2c0,0.552-0.448,1-1,1h-2
		c-0.552,0-1-0.448-1-1v-2C5.5-1.552,5.948-2,6.5-2z"/>
</g>
<g id="_x3E__x3E_">
</g>
<g id="_x3E_">
</g>
</svg>
