<?xml version="1.0" encoding="iso-8859-1"?>
<!-- Generator: Adobe Illustrator 18.1.1, SVG Export Plug-In . SVG Version: 6.00 Build 0)  -->
<svg version="1.1" xmlns="http://www.w3.org/2000/svg" xmlns:xlink="http://www.w3.org/1999/xlink" x="0px" y="0px"
	 viewBox="0 0 16 16" style="enable-background:new 0 0 16 16;" xml:space="preserve">
<g id="tag">
</g>
<g id="trigger">
</g>
<g id="options">
</g>
<g id="edit">
	<g>
		<path d="M1.234,11.293l-1.205,3.779c-0.153,0.58,0.319,1.051,0.899,0.899l3.779-1.205c0.091-0.024,0.221-0.098,0.625-0.502
			l7.826-7.826c0.195-0.195,0.195-0.51,0-0.705l-2.89-2.89c-0.194-0.194-0.511-0.194-0.705,0l-8.163,8.163
			C1.333,11.072,1.258,11.202,1.234,11.293z M10.365,4.737c0.274,0.274,0.175,0.724,0,0.899l-6.741,6.741
			c-0.177,0.177-0.72,0.175-0.899,0c-0.175-0.179-0.175-0.72,0-0.899l6.741-6.741C9.644,4.558,10.063,4.435,10.365,4.737z"/>
		<path d="M12.259,0.146l-1.093,1.093c-0.195,0.195-0.195,0.51,0,0.705l2.89,2.89c0.195,0.195,0.51,0.195,0.705,0l1.093-1.093
			c0.195-0.195,0.195-0.51,0-0.705l-2.89-2.89C12.769-0.049,12.454-0.049,12.259,0.146z"/>
	</g>
</g>
<g id="del">
</g>
<g id="home">
</g>
<g id="logout">
</g>
<g id="profile">
</g>
<g id="copy">
</g>
<g id="_x28__x3F__x29_">
</g>
<g id="_x28__x3F__x29__over">
</g>
<g id="_x28_x_x29_">
</g>
<g id="x">
</g>
<g id="menu">
</g>
<g id="_x3E__x3E_">
</g>
<g id="_x3E_">
</g>
</svg>
