<?xml version="1.0" encoding="iso-8859-1"?>
<!-- Generator: Adobe Illustrator 19.1.0, SVG Export Plug-In . SVG Version: 6.00 Build 0)  -->
<svg version="1.1" xmlns="http://www.w3.org/2000/svg" xmlns:xlink="http://www.w3.org/1999/xlink" x="0px" y="0px"
	 viewBox="0 0 16 16" style="enable-background:new 0 0 16 16;" xml:space="preserve">
<g id="tag">
</g>
<g id="trigger">
</g>
<g id="options">
</g>
<g id="edit">
</g>
<g id="del">
</g>
<g id="home">
</g>
<g id="logout">
</g>
<g id="profile">
</g>
<g id="copy">
</g>
<g id="_x28__x3F__x29_">
</g>
<g id="_x28__x3F__x29__over">
</g>
<g id="_x28_x_x29_">
</g>
<g id="x">
</g>
<g id="menu">
</g>
<g id="Layer_18">
	<path style="fill-rule:evenodd;clip-rule:evenodd;" d="M2,10.5h12c0.552,0,1,0.448,1,1v1c0,0.552-0.448,1-1,1H2
		c-0.552,0-1-0.448-1-1v-1C1,10.948,1.448,10.5,2,10.5z"/>
	<path style="fill-rule:evenodd;clip-rule:evenodd;" d="M2,6.5h12c0.552,0,1,0.448,1,1v1c0,0.552-0.448,1-1,1H2
		c-0.552,0-1-0.448-1-1v-1C1,6.948,1.448,6.5,2,6.5z"/>
	<path style="fill-rule:evenodd;clip-rule:evenodd;" d="M2,2.5h12c0.552,0,1,0.448,1,1v1c0,0.552-0.448,1-1,1H2
		c-0.552,0-1-0.448-1-1v-1C1,2.948,1.448,2.5,2,2.5z"/>
</g>
<g id="_x3E__x3E_">
</g>
<g id="_x3E_">
</g>
<g id="Layer_17">
</g>
</svg>
