<?xml version="1.0" encoding="iso-8859-1"?>
<!-- Generator: Adobe Illustrator 19.1.0, SVG Export Plug-In . SVG Version: 6.00 Build 0)  -->
<svg version="1.1" id="Layer_1" xmlns="http://www.w3.org/2000/svg" xmlns:xlink="http://www.w3.org/1999/xlink" x="0px" y="0px"
	 viewBox="-391 293 16 16" style="enable-background:new -391 293 16 16;" xml:space="preserve">
<g id="tag">
</g>
<g id="trigger">
</g>
<g id="options">
</g>
<g id="edit">
</g>
<g id="del">
</g>
<g id="home">
</g>
<g id="logout">
</g>
<g id="profile">
</g>
<g id="copy">
</g>
<g id="_x28__x3F__x29_">
</g>
<g id="_x28__x3F__x29__over">
</g>
<g id="_x28_x_x29_">
</g>
<g id="x">
</g>
<g id="menu">
</g>
<g id="Layer_18">
	<path style="fill:#FFFFFF;" d="M-389,303.5h12c0.552,0,1,0.448,1,1v1c0,0.552-0.448,1-1,1h-12c-0.552,0-1-0.448-1-1v-1
		C-390,303.948-389.552,303.5-389,303.5z"/>
	<path style="fill:#FFFFFF;" d="M-389,299.5h12c0.552,0,1,0.448,1,1v1c0,0.552-0.448,1-1,1h-12c-0.552,0-1-0.448-1-1v-1
		C-390,299.948-389.552,299.5-389,299.5z"/>
	<path style="fill:#FFFFFF;" d="M-389,295.5h12c0.552,0,1,0.448,1,1v1c0,0.552-0.448,1-1,1h-12c-0.552,0-1-0.448-1-1v-1
		C-390,295.948-389.552,295.5-389,295.5z"/>
</g>
<g id="_x3E__x3E_">
</g>
<g id="_x3E_">
</g>
<g id="Layer_17">
</g>
</svg>
