<?xml version="1.0" encoding="iso-8859-1"?>
<!-- Generator: Adobe Illustrator 18.1.1, SVG Export Plug-In . SVG Version: 6.00 Build 0)  -->
<svg version="1.1" xmlns="http://www.w3.org/2000/svg" xmlns:xlink="http://www.w3.org/1999/xlink" x="0px" y="0px"
	 viewBox="0 0 16 16" style="enable-background:new 0 0 16 16;" xml:space="preserve">
<g id="tag">
</g>
<g id="trigger">
</g>
<g id="options">
</g>
<g id="edit">
</g>
<g id="del">
</g>
<g id="home">
</g>
<g id="logout">
</g>
<g id="profile">
</g>
<g id="copy">
</g>
<g id="_x28__x3F__x29_">
</g>
<g id="_x28__x3F__x29__over">
	<path d="M8,0C3.589,0,0,3.589,0,8c0,4.411,3.589,8,8,8s8-3.589,8-8C16,3.589,12.411,0,8,0z M8.887,12.5H6.953v-1.895h1.933V12.5z
		 M10.876,6.849c-0.103,0.256-0.23,0.473-0.381,0.653c-0.154,0.181-0.32,0.334-0.505,0.462C9.806,8.092,9.631,8.217,9.467,8.345
		C9.303,8.473,9.155,8.618,9.03,8.782C8.902,8.946,8.821,9.151,8.789,9.398v0.467H7.126V9.311c0.026-0.352,0.092-0.648,0.202-0.885
		C7.44,8.187,7.57,7.985,7.717,7.814c0.149-0.166,0.305-0.313,0.469-0.437C8.35,7.253,8.501,7.132,8.642,7.011
		c0.139-0.125,0.252-0.26,0.337-0.407c0.087-0.147,0.126-0.335,0.117-0.554c0-0.379-0.092-0.656-0.277-0.838
		C8.635,5.03,8.378,4.941,8.049,4.941c-0.222,0-0.411,0.043-0.571,0.128C7.316,5.156,7.186,5.271,7.084,5.414
		c-0.105,0.145-0.18,0.314-0.228,0.505C6.807,6.113,6.781,6.32,6.781,6.542h-1.81c0.009-0.444,0.083-0.851,0.228-1.22
		c0.143-0.371,0.345-0.69,0.604-0.961C6.061,4.09,6.374,3.879,6.738,3.728C7.103,3.574,7.512,3.5,7.964,3.5
		c0.582,0,1.068,0.079,1.458,0.241c0.39,0.16,0.703,0.358,0.942,0.597c0.239,0.238,0.409,0.494,0.512,0.769
		c0.102,0.275,0.153,0.533,0.153,0.769C11.029,6.269,10.978,6.595,10.876,6.849z"/>
</g>
<g id="_x28_x_x29_">
</g>
<g id="x">
</g>
<g id="menu">
</g>
<g id="_x3E__x3E_">
</g>
<g id="_x3E_">
</g>
</svg>
