<?xml version="1.0" encoding="iso-8859-1"?>
<!-- Generator: Adobe Illustrator 19.1.0, SVG Export Plug-In . SVG Version: 6.00 Build 0)  -->
<svg version="1.1" xmlns="http://www.w3.org/2000/svg" xmlns:xlink="http://www.w3.org/1999/xlink" x="0px" y="0px"
	 viewBox="0 0 16 16" style="enable-background:new 0 0 16 16;" xml:space="preserve">
<g id="Layer_28">
	<path d="M8.681,8.727L7.529,9.878L6.121,8.471l1.152-1.152c0.255-0.255,0.255-0.671,0-0.926c-0.255-0.255-0.671-0.255-0.926,0
		L5.195,7.545L4.617,6.967c-0.153-0.153-0.402-0.153-0.556,0L3.226,7.802c-0.153,0.153-0.153,0.402,0,0.556L3.35,8.483
		c-2.132,2.132-1.708,4.19-1.708,4.19L0.544,13.77c-0.391,0.391-0.391,1.024,0,1.414l0.271,0.271c0.391,0.39,1.024,0.39,1.414,0
		l1.097-1.098c0,0,1.83,0.653,4.19-1.708l0.125,0.125c0.153,0.153,0.402,0.153,0.556,0l0.836-0.836c0.153-0.153,0.153-0.402,0-0.556
		l-0.579-0.579l1.152-1.152c0.255-0.255,0.255-0.671,0-0.926C9.351,8.471,8.936,8.471,8.681,8.727L8.681,8.727z M8.681,8.727"/>
	<path d="M15.185,0.544c-0.391-0.391-1.024-0.391-1.414,0l-1.098,1.098c0,0-2.644,0.162-4.19,1.708L8.358,3.226
		c-0.153-0.153-0.402-0.153-0.556,0L6.966,4.061c-0.153,0.153-0.153,0.402,0,0.555l4.417,4.417c0.153,0.153,0.402,0.153,0.556,0
		l0.836-0.836c0.153-0.153,0.153-0.402,0-0.555L12.65,7.517c1.809-1.809,1.708-4.19,1.708-4.19l1.086-1.086
		c0.422-0.422,0.493-0.944,0.118-1.319L15.185,0.544z"/>
</g>
<g id="tag">
</g>
<g id="trigger">
</g>
<g id="options">
</g>
<g id="edit">
</g>
<g id="del">
</g>
<g id="home">
</g>
<g id="logout">
</g>
<g id="profile">
</g>
<g id="copy">
</g>
<g id="_x28__x3F__x29_">
</g>
<g id="_x28__x3F__x29__over">
</g>
<g id="_x28_x_x29_">
</g>
<g id="x">
</g>
<g id="menu">
</g>
<g id="_x3E__x3E_">
</g>
<g id="_x3E_">
</g>
<g id="Layer_22">
</g>
<g id="Layer_17">
</g>
<g id="Layer_18">
</g>
<g id="Layer_19">
</g>
<g id="Layer_23">
</g>
<g id="Layer_20">
</g>
<g id="Layer_21">
</g>
<g id="Layer_25">
</g>
<g id="Layer_26">
</g>
<g id="Layer_27">
</g>
</svg>
