<?xml version="1.0" encoding="iso-8859-1"?>
<!-- Generator: Adobe Illustrator 19.0.1, SVG Export Plug-In . SVG Version: 6.00 Build 0)  -->
<svg version="1.1" xmlns="http://www.w3.org/2000/svg" xmlns:xlink="http://www.w3.org/1999/xlink" x="0px" y="0px"
	 viewBox="0 0 16 16" style="enable-background:new 0 0 16 16;" xml:space="preserve">
<g id="tag">
</g>
<g id="trigger">
</g>
<g id="options">
</g>
<g id="edit">
</g>
<g id="del">
</g>
<g id="home">
</g>
<g id="logout">
</g>
<g id="profile">
</g>
<g id="copy">
</g>
<g id="_x28__x3F__x29_">
</g>
<g id="_x28__x3F__x29__over">
</g>
<g id="_x28_x_x29_">
</g>
<g id="x">
</g>
<g id="menu">
</g>
<g id="_x3E__x3E_">
</g>
<g id="_x3E_">
</g>
<g id="Layer_17">
	<g>
		<g>
			<path d="M15.653,5.046c0-0.681-0.134-1.341-0.396-1.965c-0.255-0.601-0.618-1.14-1.081-1.604
				c-0.463-0.463-1.003-0.827-1.604-1.081C11.95,0.132,11.288,0,10.607,0C9.926,0,9.266,0.134,8.642,0.396
				c-0.601,0.255-1.14,0.618-1.604,1.081C6.575,1.94,6.212,2.48,5.957,3.081C5.693,3.703,5.561,4.365,5.561,5.046
				c0,0.851,0.214,1.686,0.622,2.428L0.142,13.51c-0.14,0.14-0.184,0.352-0.098,0.553c0.017,0.042,0.046,0.08,0.078,0.113
				l1.353,1.353c0.033,0.033,0.071,0.059,0.113,0.078c0.201,0.086,0.413,0.044,0.553-0.098l0.836-0.836l1.204,1.204
				c0.033,0.033,0.071,0.059,0.113,0.078c0.201,0.086,0.413,0.044,0.553-0.098l1.334-1.334c0.033-0.033,0.059-0.071,0.079-0.113
				c0.086-0.201,0.044-0.413-0.098-0.553l-1.185-1.185l3.2-3.201c0.74,0.408,1.577,0.622,2.428,0.622
				c0.681,0,1.341-0.134,1.965-0.396c0.601-0.255,1.14-0.618,1.604-1.081c0.463-0.463,0.827-1.003,1.081-1.604
				C15.519,6.388,15.653,5.727,15.653,5.046L15.653,5.046z M12.375,6.816c-0.473,0.473-1.102,0.733-1.77,0.733
				c-0.668,0-1.297-0.26-1.77-0.733C8.362,6.344,8.1,5.714,8.1,5.046c0-0.67,0.26-1.297,0.733-1.77
				c0.473-0.473,1.102-0.733,1.77-0.733c0.668,0,1.297,0.26,1.77,0.733c0.473,0.473,0.733,1.102,0.733,1.77
				C13.11,5.714,12.85,6.344,12.375,6.816L12.375,6.816z M12.375,6.816"/>
		</g>
	</g>
</g>
</svg>
