<?xml version="1.0" encoding="utf-8"?>
<!-- Generator: Adobe Illustrator 18.1.1, SVG Export Plug-In . SVG Version: 6.00 Build 0)  -->
<svg version="1.1" id="Layer_1" xmlns="http://www.w3.org/2000/svg" xmlns:xlink="http://www.w3.org/1999/xlink" x="0px" y="0px"
	 viewBox="0 0 1200 1200" enable-background="new 0 0 1200 1200" xml:space="preserve">
<g id="logout">
	<path d="M1049.2,646.1c0.5-8.7,0.8-17.4,0.8-26.1c0-130.6-57.1-247.7-146.5-329.7c-14.1-11.9-25.7-20.1-43-20.1
		c-31.3,0-56.7,25.4-56.7,56.7c0,19.5,9.8,31.7,24.8,46.9c67.3,62.5,109.4,151.6,107.8,250.9c-2.8,176-147.1,324-323,330.9
		c-1,0-2,0-3,0.1c-7.9,0.2-15.9,0.2-24-0.1c-176-6.9-320.2-154.9-323-330.9c-1.6-99.3,40.6-188.4,107.8-250.9
		c15.1-15.2,24.8-27.4,24.8-46.9c0-31.3-25.4-56.7-56.7-56.7c-17.3,0-28.9,8.2-43,20.1C207.1,372.2,150,489.4,150,620
		c0,240.4,189.4,438.1,426.9,450.3c0.4,0.1,0.8,0.1,1.2,0.1c4.6,0.2,9.1,0.4,13.7,0.4c0.1,0,0.3,0,0.4,0c1.7,0,3.4,0,5,0.1
		c0.9,0,1.8,0,2.8,0c0.9,0,1.8,0,2.8,0c1.7,0,3.4,0,5-0.1c0.1,0,0.3,0,0.4,0c4.5-0.1,9.1-0.2,13.7-0.4c24.5-1.2,48.6-4.4,72.1-9.4
		c106-22.7,198.2-82.9,262.3-165.9c54.2-69.9,88.4-155.8,93.2-248.9L1049.2,646.1z"/>
	<path d="M600,600L600,600c-32.4,0-59-26.5-59-59V187.5c0-32.4,26.5-58.9,59-58.9l0,0c32.4,0,59,26.6,59,58.9V541
		C659,573.4,632.5,600,600,600z"/>
</g>
</svg>
