<?xml version="1.0" encoding="iso-8859-1"?>
<!-- Generator: Adobe Illustrator 18.1.1, SVG Export Plug-In . SVG Version: 6.00 Build 0)  -->
<svg version="1.1" xmlns="http://www.w3.org/2000/svg" xmlns:xlink="http://www.w3.org/1999/xlink" x="0px" y="0px"
	 viewBox="0 0 16 16" style="enable-background:new 0 0 16 16;" xml:space="preserve">
<g id="tag">
</g>
<g id="trigger">
</g>
<g id="options">
	<path d="M6.641,12.204c0-0.256-0.029-0.509-0.087-0.75l4.985-5.01c0.358,0.133,0.744,0.201,1.148,0.201
		c1.833-0.003,3.317-1.498,3.314-3.331c0-0.022,0-0.047,0-0.072L15.085,3.49c-0.314,0.643-0.971,1.087-1.733,1.087
		c-1.065,0.004-1.931-0.856-1.935-1.92c0-0.956,0.693-1.754,1.606-1.906l0.607-0.61C13.326,0.047,13.006,0,12.67,0
		c-1.834,0.007-3.317,1.498-3.314,3.331C9.36,3.645,9.403,3.949,9.486,4.238L4.602,9.147C4.205,8.981,3.768,8.891,3.314,8.891
		C1.479,8.898-0.004,10.389,0,12.226c0,0.022,0,0.047,0,0.069l0.917-0.246c0.314-0.642,0.971-1.087,1.733-1.09
		c1.065-0.004,1.928,0.859,1.931,1.924c0.004,0.957-0.689,1.751-1.603,1.906l-0.61,0.61c0.307,0.094,0.628,0.14,0.964,0.137
		C5.165,15.533,6.649,14.041,6.641,12.204L6.641,12.204z"/>
</g>
<g id="edit">
</g>
<g id="del">
</g>
<g id="home">
</g>
<g id="logout">
</g>
<g id="profile">
</g>
<g id="copy">
</g>
<g id="_x28__x3F__x29_">
</g>
<g id="_x28__x3F__x29__over">
</g>
<g id="_x28_x_x29_">
</g>
<g id="x">
</g>
<g id="menu">
</g>
<g id="_x3E__x3E_">
</g>
<g id="_x3E_">
</g>
</svg>
