<?xml version="1.0" encoding="iso-8859-1"?>
<!-- Generator: Adobe Illustrator 19.2.1, SVG Export Plug-In . SVG Version: 6.00 Build 0)  -->
<svg version="1.1" xmlns="http://www.w3.org/2000/svg" xmlns:xlink="http://www.w3.org/1999/xlink" x="0px" y="0px"
	 viewBox="0 0 16 16" style="enable-background:new 0 0 16 16;" xml:space="preserve">
<g id="tag">
	<path d="M14.459,3.534c-0.581-0.118-1.149,0.256-1.268,0.838l-0.511,2.506c-0.019,0.094-0.109,0.157-0.204,0.143
		c-0.095-0.014-0.163-0.099-0.155-0.195l0.388-4.563c0.055-0.65-0.427-1.222-1.077-1.277c-0.65-0.056-1.222,0.427-1.277,1.076
		l-0.331,3.886c-0.009,0.102-0.096,0.179-0.198,0.175C9.723,6.119,9.643,6.035,9.643,5.933V1.181C9.643,0.529,9.114,0,8.461,0
		C7.809,0,7.28,0.529,7.28,1.181v4.677c0,0.084-0.065,0.153-0.149,0.158C7.048,6.021,6.975,5.96,6.965,5.877L6.518,2.08
		C6.442,1.432,5.854,0.968,5.206,1.045C4.558,1.121,4.095,1.708,4.172,2.356l0.923,7.828c0.012,0.101-0.042,0.198-0.134,0.241
		c-0.092,0.044-0.201,0.023-0.272-0.05L2.714,8.324c-0.452-0.47-1.2-0.484-1.67-0.031c-0.47,0.452-0.484,1.2-0.032,1.67l4.687,4.868
		C6.239,15.541,7.093,16,8.052,16h2.833c1.725,0,3.128-1.404,3.128-3.129c0-1.185,0.12-2.368,0.357-3.529l0.927-4.54
		C15.415,4.22,15.04,3.653,14.459,3.534L14.459,3.534z M14.459,3.534"/>
</g>
<g id="trigger">
</g>
<g id="options">
</g>
<g id="edit">
</g>
<g id="del">
</g>
<g id="home">
</g>
<g id="logout">
</g>
<g id="profile">
</g>
<g id="copy">
</g>
<g id="_x28__x3F__x29_">
</g>
<g id="_x28__x3F__x29__over">
</g>
<g id="_x28_x_x29_">
</g>
<g id="x">
</g>
<g id="menu">
</g>
<g id="_x3E__x3E_">
</g>
<g id="_x3E_">
</g>
<g id="Layer_22">
</g>
<g id="Layer_17">
</g>
<g id="Layer_18">
</g>
<g id="Layer_19">
</g>
<g id="Layer_23">
</g>
<g id="Layer_20">
</g>
<g id="Layer_21">
</g>
<g id="Layer_25">
</g>
<g id="Layer_26">
</g>
<g id="Layer_27">
</g>
<g id="Layer_29">
</g>
<g id="Layer_30">
</g>
</svg>
