<?xml version="1.0" encoding="iso-8859-1"?>
<!-- Generator: Adobe Illustrator 19.1.0, SVG Export Plug-In . SVG Version: 6.00 Build 0)  -->
<svg version="1.1" xmlns="http://www.w3.org/2000/svg" xmlns:xlink="http://www.w3.org/1999/xlink" x="0px" y="0px"
	 viewBox="0 0 16 16" style="enable-background:new 0 0 16 16;" xml:space="preserve">
<g id="tag">
</g>
<g id="trigger">
</g>
<g id="options">
</g>
<g id="edit">
</g>
<g id="del">
</g>
<g id="home">
</g>
<g id="logout">
</g>
<g id="profile">
</g>
<g id="copy">
</g>
<g id="_x28__x3F__x29_">
</g>
<g id="_x28__x3F__x29__over">
</g>
<g id="_x28_x_x29_">
</g>
<g id="x">
</g>
<g id="menu">
</g>
<g id="_x3E__x3E_">
</g>
<g id="_x3E_">
</g>
<g id="Layer_22">
</g>
<g id="Layer_17">
</g>
<g id="Layer_18">
</g>
<g id="Layer_19">
</g>
<g id="Layer_23">
</g>
<g id="Layer_20">
	<g>
		<path style="fill:#010101;" d="M15.979,7.469c-0.26-3.996-3.452-7.188-7.448-7.453V0H7.469v0.016
			C3.473,0.281,0.281,3.473,0.016,7.469H0v1.061h0.016c0.265,3.996,3.457,7.188,7.453,7.448V16h1.061v-0.022
			c3.996-0.26,7.188-3.452,7.448-7.448H16V7.469H15.979z M5.011,1.745c-0.516,0.681-0.948,1.541-1.256,2.52H2.156
			C2.849,3.183,3.839,2.303,5.011,1.745L5.011,1.745z M1.599,5.333h1.875C3.328,6.005,3.24,6.724,3.208,7.469h-2.12
			C1.145,6.713,1.323,6,1.599,5.333L1.599,5.333z M1.088,8.531h2.12c0.032,0.745,0.12,1.464,0.265,2.136H1.599
			C1.323,10,1.145,9.287,1.088,8.531L1.088,8.531z M2.156,11.735h1.593c0.313,0.979,0.74,1.839,1.261,2.52
			C3.839,13.697,2.849,12.817,2.156,11.735L2.156,11.735z M7.469,14.864c-1.1-0.291-2.043-1.468-2.615-3.129h2.615V14.864z
			 M7.469,10.667H4.552C4.402,10,4.307,9.287,4.276,8.531h3.193V10.667z M7.469,7.469H4.276C4.307,6.713,4.402,6,4.552,5.333h2.917
			V7.469z M7.469,4.265H4.855c0.572-1.661,1.514-2.839,2.615-3.129V4.265z M13.844,4.265h-1.593c-0.313-0.979-0.74-1.839-1.261-2.52
			C12.161,2.303,13.151,3.183,13.844,4.265L13.844,4.265z M8.531,1.136c1.1,0.291,2.043,1.468,2.615,3.129H8.531V1.136z
			 M8.531,5.333h2.917c0.151,0.667,0.24,1.38,0.276,2.136H8.531V5.333z M8.531,8.531h3.194c-0.031,0.756-0.125,1.469-0.276,2.136
			H8.531V8.531z M8.531,14.864v-3.129h2.615C10.573,13.396,9.631,14.573,8.531,14.864L8.531,14.864z M10.989,14.255
			c0.516-0.687,0.948-1.541,1.261-2.52h1.593C13.151,12.817,12.161,13.697,10.989,14.255L10.989,14.255z M14.402,10.667h-1.875
			c0.145-0.672,0.233-1.391,0.265-2.136h2.12C14.855,9.287,14.677,10,14.402,10.667L14.402,10.667z M12.792,7.469
			c-0.032-0.745-0.12-1.464-0.265-2.136h1.875c0.276,0.667,0.453,1.38,0.51,2.136H12.792z M12.792,7.469"/>
	</g>
</g>
<g id="Layer_21">
</g>
<g id="Layer_25">
</g>
<g id="Layer_24">
</g>
</svg>
