<?xml version="1.0" encoding="iso-8859-1"?>
<!-- Generator: Adobe Illustrator 19.1.0, SVG Export Plug-In . SVG Version: 6.00 Build 0)  -->
<svg version="1.1" xmlns="http://www.w3.org/2000/svg" xmlns:xlink="http://www.w3.org/1999/xlink" x="0px" y="0px"
	 viewBox="0 0 16 16" style="enable-background:new 0 0 16 16;" xml:space="preserve">
<g id="tag">
</g>
<g id="trigger">
</g>
<g id="options">
</g>
<g id="edit">
</g>
<g id="del">
</g>
<g id="home">
</g>
<g id="logout">
</g>
<g id="profile">
</g>
<g id="copy">
</g>
<g id="_x28__x3F__x29_">
</g>
<g id="_x28__x3F__x29__over">
</g>
<g id="_x28_x_x29_">
</g>
<g id="x">
</g>
<g id="menu">
</g>
<g id="_x3E__x3E_">
</g>
<g id="_x3E_">
</g>
<g id="Layer_22">
</g>
<g id="Layer_17">
</g>
<g id="Layer_18">
</g>
<g id="Layer_19">
</g>
<g id="Layer_23">
	<g>
		<path d="M15.712,3.561l-1.404-1.404c-0.192-0.192-0.426-0.289-0.702-0.289c-0.275,0-0.51,0.096-0.702,0.289L6.132,8.94
			L3.098,5.894C2.905,5.702,2.671,5.605,2.395,5.605S1.886,5.702,1.693,5.894L0.29,7.298C0.097,7.491,0.001,7.725,0.001,8
			c0,0.275,0.096,0.51,0.289,0.702l3.737,3.737l1.404,1.404c0.192,0.193,0.426,0.289,0.702,0.289s0.509-0.096,0.702-0.289
			l1.404-1.404l7.474-7.473c0.192-0.193,0.289-0.427,0.289-0.702S15.904,3.754,15.712,3.561L15.712,3.561z M15.712,3.561"/>
	</g>
</g>
<g id="Layer_20">
</g>
<g id="Layer_21">
</g>
<g id="Layer_25">
</g>
<g id="Layer_24">
</g>
</svg>
