<?xml version="1.0" encoding="iso-8859-1"?>
<!-- Generator: Adobe Illustrator 18.1.1, SVG Export Plug-In . SVG Version: 6.00 Build 0)  -->
<svg version="1.1" xmlns="http://www.w3.org/2000/svg" xmlns:xlink="http://www.w3.org/1999/xlink" x="0px" y="0px"
	 viewBox="0 0 16 16" style="enable-background:new 0 0 16 16;" xml:space="preserve">
<g id="tag">
	<path d="M14.903,0L8.577,0.006c-0.306,0-0.598,0.129-0.805,0.354L0.289,8.493c-0.41,0.445-0.381,1.139,0.065,1.548l6.162,5.669
		c0.444,0.409,1.136,0.381,1.546-0.062l7.646-7.979C15.896,7.467,16,7.201,16,6.925V1.096C16,0.49,15.509-0.001,14.903,0z
		 M11.99,5.252c-0.823,0-1.49-0.667-1.49-1.49c0-0.823,0.667-1.49,1.49-1.49c0.823,0,1.49,0.667,1.49,1.49
		C13.48,4.585,12.813,5.252,11.99,5.252z"/>
</g>
<g id="trigger">
</g>
<g id="options">
</g>
<g id="edit">
</g>
<g id="del">
</g>
<g id="home">
</g>
<g id="logout">
</g>
<g id="profile">
</g>
<g id="copy">
</g>
<g id="_x28__x3F__x29_">
</g>
<g id="_x28__x3F__x29__over">
</g>
<g id="_x28_x_x29_">
</g>
<g id="x">
</g>
<g id="menu">
</g>
<g id="_x3E__x3E_">
</g>
<g id="_x3E_">
</g>
</svg>
