<?xml version="1.0" encoding="iso-8859-1"?>
<!-- Generator: Adobe Illustrator 19.2.1, SVG Export Plug-In . SVG Version: 6.00 Build 0)  -->
<svg version="1.1" xmlns="http://www.w3.org/2000/svg" xmlns:xlink="http://www.w3.org/1999/xlink" x="0px" y="0px"
	 viewBox="0 0 16 16" style="enable-background:new 0 0 16 16;" xml:space="preserve">
<g id="tag">
	<path d="M15.192,7.192h-0.724c-0.366-2.949-2.71-5.293-5.659-5.659V0.808C8.808,0.362,8.446,0,8,0
		C7.554,0,7.192,0.362,7.192,0.808v0.724c-2.949,0.366-5.293,2.71-5.659,5.659H0.808C0.362,7.192,0,7.554,0,8
		c0,0.446,0.362,0.808,0.808,0.808h0.724c0.366,2.949,2.71,5.293,5.659,5.659v0.724C7.192,15.638,7.554,16,8,16
		c0.446,0,0.808-0.362,0.808-0.808v-0.724c2.949-0.366,5.293-2.71,5.659-5.659h0.724C15.638,8.808,16,8.446,16,8
		C16,7.554,15.638,7.192,15.192,7.192L15.192,7.192z M8.808,12.834V10.29c0-0.446-0.362-0.808-0.808-0.808
		c-0.446,0-0.808,0.362-0.808,0.808v2.545c-2.057-0.343-3.684-1.97-4.026-4.026H5.71c0.446,0,0.808-0.362,0.808-0.808
		c0-0.446-0.362-0.808-0.808-0.808H3.166c0.342-2.057,1.97-3.684,4.026-4.026V5.71c0,0.446,0.362,0.808,0.808,0.808
		c0.446,0,0.808-0.362,0.808-0.808V3.166c2.056,0.343,3.684,1.97,4.026,4.026H10.29C9.843,7.192,9.482,7.554,9.482,8
		c0,0.446,0.362,0.808,0.808,0.808h2.545C12.492,10.865,10.864,12.492,8.808,12.834L8.808,12.834z M8.808,12.834"/>
</g>
<g id="trigger">
</g>
<g id="options">
</g>
<g id="edit">
</g>
<g id="del">
</g>
<g id="home">
</g>
<g id="logout">
</g>
<g id="profile">
</g>
<g id="copy">
</g>
<g id="_x28__x3F__x29_">
</g>
<g id="_x28__x3F__x29__over">
</g>
<g id="_x28_x_x29_">
</g>
<g id="x">
</g>
<g id="menu">
</g>
<g id="_x3E__x3E_">
</g>
<g id="_x3E_">
</g>
<g id="Layer_22">
</g>
<g id="Layer_17">
</g>
<g id="Layer_18">
</g>
<g id="Layer_19">
</g>
<g id="Layer_23">
</g>
<g id="Layer_20">
</g>
<g id="Layer_21">
</g>
<g id="Layer_25">
</g>
<g id="Layer_26">
</g>
<g id="Layer_27">
</g>
<g id="Layer_29">
</g>
</svg>
