<?xml version="1.0" encoding="utf-8"?>
<!-- Generator: Adobe Illustrator 18.1.1, SVG Export Plug-In . SVG Version: 6.00 Build 0)  -->
<svg version="1.1" id="Layer_1" xmlns="http://www.w3.org/2000/svg" xmlns:xlink="http://www.w3.org/1999/xlink" x="0px" y="0px"
	 viewBox="0 0 1200 1200" enable-background="new 0 0 1200 1200" xml:space="preserve">
<path d="M600,494.5c58.2,0,105.5,47.2,105.5,105.5c0,58.2-47.3,105.5-105.5,105.5c-58.2,0-105.5-47.3-105.5-105.5
	C494.5,541.8,541.8,494.5,600,494.5z"/>
<path d="M1041,662c2.8-19.8,5.5-39.3,5.5-62c0-22.7-2.7-42.7-5.5-62.5l127.5-90.6c11.3-8.5,17-25.7,8.5-39.9l-125-209.5
	c-8.5-14.2-22.8-20-37-11.5l-141.5,65c-34-25.5-67.8-45-107.5-62L751.5,33C748.7,18.8,737.2,7.5,723,7.5H479.5
	C465.3,7.5,451,18.8,451,33l-14,156c-39.7,17-76.8,36.5-108,62l-141.5-65c-14.2-5.7-31.3,0.2-37,11.5L29,407
	c-8.5,14.2-3.3,31.5,8,40l128,90.5c-2.8,19.8-6,39.8-6,62.5c0,22.7,3.2,42.2,6,62L31.5,753c-11.3,8.5-17,25.8-8.5,40l122,209.5
	c8.5,14.2,22.8,20,37,11.5l141.5-65.5c34,25.5,67.8,45.5,107.5,62.5l14.5,156c2.8,14.2,14.3,25.5,28.5,25.5h243.5
	c14.2,0,28.5-11.3,28.5-25.5l14-156c39.7-17,76.8-37,108-62.5l141.5,65.5c14.2,5.7,31.3-0.2,37-11.5L1168,793
	c8.5-14.2,3.3-31.5-8-40L1041,662z M598.5,883.5C442.6,883.5,315,755.9,315,600s127.6-283.5,283.5-283.5S882,444.1,882,600
	S754.4,883.5,598.5,883.5z"/>
</svg>
