<?xml version="1.0" encoding="iso-8859-1"?>
<!-- Generator: Adobe Illustrator 19.1.0, SVG Export Plug-In . SVG Version: 6.00 Build 0)  -->
<svg version="1.1" xmlns="http://www.w3.org/2000/svg" xmlns:xlink="http://www.w3.org/1999/xlink" x="0px" y="0px"
	 viewBox="0 0 16 16" style="enable-background:new 0 0 16 16;" xml:space="preserve">
<g id="tag">
</g>
<g id="trigger">
</g>
<g id="options">
</g>
<g id="edit">
</g>
<g id="del">
</g>
<g id="home">
</g>
<g id="logout">
</g>
<g id="profile">
</g>
<g id="copy">
</g>
<g id="_x28__x3F__x29_">
</g>
<g id="_x28__x3F__x29__over">
</g>
<g id="_x28_x_x29_">
</g>
<g id="x">
	<path d="M10.828,8l3.536-3.536c0.389-0.389,0.389-1.025,0-1.414L12.95,1.636c-0.389-0.389-1.025-0.389-1.414,0L8,5.171L4.464,1.636
		c-0.389-0.389-1.025-0.389-1.414,0L1.636,3.05c-0.389,0.389-0.389,1.025,0,1.414L5.172,8l-3.536,3.536
		c-0.389,0.389-0.389,1.025,0,1.414l1.414,1.414c0.389,0.389,1.025,0.389,1.414,0L8,10.828l3.536,3.536
		c0.389,0.389,1.025,0.389,1.414,0l1.414-1.414c0.389-0.389,0.389-1.025,0-1.414L10.828,8z"/>
</g>
<g id="menu">
</g>
<g id="_x3E__x3E_">
</g>
<g id="_x3E_">
</g>
<g id="Layer_22">
</g>
<g id="Layer_17">
</g>
<g id="Layer_18">
</g>
<g id="Layer_19">
</g>
<g id="Layer_23">
</g>
<g id="Layer_20">
</g>
<g id="Layer_21">
</g>
<g id="Layer_25">
</g>
<g id="Layer_24">
</g>
</svg>
