<?xml version="1.0" encoding="iso-8859-1"?>
<!-- Generator: Adobe Illustrator 19.0.1, SVG Export Plug-In . SVG Version: 6.00 Build 0)  -->
<svg version="1.1" id="Layer_1" xmlns="http://www.w3.org/2000/svg" xmlns:xlink="http://www.w3.org/1999/xlink" x="0px" y="0px"
	 viewBox="-231 313 16 16" style="enable-background:new -231 313 16 16;" xml:space="preserve">
<g id="tag">
</g>
<g id="trigger">
</g>
<g id="options">
</g>
<g id="edit">
</g>
<g id="del">
</g>
<g id="home">
</g>
<g id="logout">
</g>
<g id="profile">
</g>
<g id="copy">
</g>
<g id="_x28__x3F__x29_">
</g>
<g id="_x28__x3F__x29__over">
</g>
<g id="x">
</g>
<g id="menu">
</g>
<g id="_x3E__x3E_">
</g>
<g id="_x3E_">
	<g>
		<path d="M-227.785,318.286c0.592,0,1.097-0.209,1.515-0.628c0.418-0.418,0.628-0.923,0.628-1.515c0-0.591-0.209-1.097-0.628-1.515
			c-0.419-0.419-0.923-0.628-1.515-0.628c-0.592,0-1.097,0.209-1.515,0.628c-0.419,0.418-0.628,0.923-0.628,1.515
			c0,0.592,0.209,1.097,0.627,1.515C-228.882,318.076-228.377,318.286-227.785,318.286L-227.785,318.286z"/>
		<path d="M-224.953,321.814c0.549,0.55,1.212,0.824,1.989,0.824c0.777,0,1.439-0.274,1.989-0.824
			c0.55-0.549,0.824-1.212,0.824-1.989c0-0.777-0.274-1.439-0.824-1.988c-0.549-0.55-1.212-0.824-1.989-0.824
			c-0.777,0-1.439,0.275-1.989,0.824c-0.549,0.55-0.823,1.212-0.823,1.989C-225.776,320.603-225.502,321.265-224.953,321.814
			L-224.953,321.814z"/>
		<path d="M-218.214,318.285c0.592,0,1.097-0.209,1.515-0.628c0.419-0.418,0.628-0.923,0.628-1.515c0-0.591-0.209-1.097-0.628-1.515
			c-0.419-0.418-0.924-0.627-1.515-0.627c-0.591,0-1.097,0.209-1.515,0.628c-0.418,0.418-0.627,0.923-0.627,1.515
			c0,0.592,0.209,1.097,0.627,1.515S-218.806,318.285-218.214,318.285L-218.214,318.285z"/>
		<path d="M-215.971,318.56c-0.031,0-0.145,0.055-0.34,0.165c-0.196,0.11-0.451,0.221-0.764,0.333
			c-0.314,0.112-0.625,0.168-0.933,0.168c-0.35,0-0.697-0.06-1.042-0.18c0.026,0.193,0.039,0.366,0.039,0.517
			c0,0.726-0.212,1.394-0.635,2.006c0.846,0.026,1.538,0.36,2.076,1.003h1.05c0.428,0,0.788-0.106,1.081-0.317
			c0.293-0.213,0.439-0.522,0.439-0.93C-215,319.482-215.324,318.56-215.971,318.56L-215.971,318.56z"/>
		<path d="M-218.108,325.491c-0.052-0.29-0.118-0.56-0.198-0.808c-0.079-0.248-0.186-0.49-0.32-0.726
			c-0.134-0.236-0.288-0.436-0.462-0.603c-0.173-0.166-0.386-0.299-0.636-0.398s-0.527-0.149-0.83-0.149
			c-0.049,0-0.156,0.054-0.32,0.16c-0.164,0.107-0.344,0.226-0.543,0.357c-0.199,0.132-0.463,0.251-0.796,0.357
			c-0.333,0.107-0.667,0.16-1.005,0.16c-0.337,0-0.672-0.054-1.004-0.16c-0.333-0.107-0.598-0.226-0.797-0.357
			c-0.198-0.131-0.38-0.251-0.543-0.357c-0.164-0.107-0.27-0.16-0.32-0.16c-0.303,0-0.579,0.05-0.83,0.149
			c-0.25,0.099-0.463,0.232-0.636,0.398c-0.174,0.166-0.327,0.367-0.462,0.603c-0.134,0.236-0.24,0.478-0.32,0.726
			c-0.079,0.248-0.145,0.517-0.197,0.808c-0.052,0.29-0.087,0.56-0.104,0.811s-0.026,0.508-0.026,0.771
			c0,0.595,0.181,1.065,0.543,1.41c0.364,0.344,0.845,0.517,1.445,0.517h6.504c0.6,0,1.081-0.173,1.444-0.517
			c0.362-0.345,0.543-0.815,0.543-1.41c0-0.263-0.009-0.52-0.026-0.771S-218.056,325.781-218.108,325.491L-218.108,325.491z"/>
		<path d="M-226.429,321.585c-0.417-0.601-0.625-1.259-0.625-1.973c0-0.149,0.013-0.318,0.039-0.509
			c-0.339,0.119-0.681,0.178-1.025,0.178c-0.303,0-0.609-0.055-0.917-0.166c-0.308-0.11-0.559-0.219-0.751-0.328
			c-0.193-0.107-0.305-0.161-0.336-0.161c-0.637,0-0.956,0.907-0.956,2.72c0,0.401,0.144,0.705,0.431,0.914
			c0.289,0.207,0.643,0.311,1.065,0.311h1.033C-227.942,321.939-227.262,321.611-226.429,321.585L-226.429,321.585z"/>
	</g>
</g>
</svg>
