<?xml version="1.0" encoding="utf-8"?>
<!-- Generator: Adobe Illustrator 18.1.1, SVG Export Plug-In . SVG Version: 6.00 Build 0)  -->
<svg version="1.1" id="Layer_1" xmlns="http://www.w3.org/2000/svg" xmlns:xlink="http://www.w3.org/1999/xlink" x="0px" y="0px"
	 viewBox="0 0 1200 1200" enable-background="new 0 0 1200 1200" xml:space="preserve">
<path d="M1158.2,991.8c-1.9-26.3-5.6-54.7-11.2-85.1c-5.6-30.5-12.7-58.8-21.2-84.8c-8.6-26-19.9-51.4-34.3-76.2
	c-14.4-24.8-30.9-45.8-49.6-63.3c-18.6-17.5-41.4-31.4-68.3-41.8c-26.8-10.4-56.5-15.6-89-15.6c-5.3,0-16.9,5.5-34.5,16.7
	c-17.5,11.2-37,23.8-58.3,37.5c-21.3,13.8-49.7,26.3-85.5,37.5c-35.6,11.2-71.5,16.8-107.7,16.8s-72.2-5.5-107.9-16.7
	c-35.7-11.2-64.2-23.7-85.5-37.5c-21.3-13.7-40.7-26.3-58.4-37.5c-17.6-11.2-28.9-16.8-34.2-16.8c-32.5,0-62.2,5.2-89.1,15.6
	S173.7,665,155,682.4c-18.7,17.4-35.1,38.5-49.6,63.2c-14.3,24.8-25.8,50.2-34.3,76.2c-8.5,26-15.6,54.3-21.1,84.8
	c-5.6,30.5-9.4,58.8-11.2,85.1c-1.9,26.3-2.8,53.2-2.8,80.8c0,124.6,84,127.3,213,127.3h698c128.9,0,213.9-3.2,213.9-127.3
	C1160.9,1045.1,1159.9,1018.1,1158.2,991.8z"/>
<path d="M897.5,299c0,165.1-133.9,299-299,299s-299-133.9-299-299S432.9,0,598,0S897.5,133.9,897.5,299z"/>
</svg>
