<?xml version="1.0" encoding="iso-8859-1"?>
<!-- Generator: Adobe Illustrator 19.2.0, SVG Export Plug-In . SVG Version: 6.00 Build 0)  -->
<svg version="1.1" xmlns="http://www.w3.org/2000/svg" xmlns:xlink="http://www.w3.org/1999/xlink" x="0px" y="0px"
	 viewBox="0 0 22 16" style="enable-background:new 0 0 22 16;" xml:space="preserve">
<g id="Layer_28">
</g>
<g id="tag">
</g>
<g id="trigger">
</g>
<g id="options">
</g>
<g id="edit">
</g>
<g id="del">
</g>
<g id="home">
</g>
<g id="logout">
</g>
<g id="profile">
</g>
<g id="copy">
</g>
<g id="_x28__x3F__x29_">
</g>
<g id="_x28__x3F__x29__over">
</g>
<g id="_x28_x_x29_">
</g>
<g id="x">
</g>
<g id="menu">
</g>
<g id="_x3E__x3E_">
</g>
<g id="_x3E_">
</g>
<g id="Layer_22">
</g>
<g id="Layer_17">
</g>
<g id="Layer_18">
</g>
<g id="Layer_19">
</g>
<g id="Layer_23">
</g>
<g id="Layer_20">
</g>
<g id="Layer_21">
</g>
<g id="Layer_25">
</g>
<g id="Layer_26">
</g>
<g id="Layer_27">
	<path style="fill:#010101;" d="M21.919,8.08c0,0.712-0.061,1.379-0.184,1.999c-0.123,0.62-0.309,1.231-0.559,1.833
		c-0.25,0.602-0.559,1.204-0.927,1.808c-0.222,0.368-0.408,0.633-0.559,0.796c-0.151,0.163-0.294,0.264-0.428,0.304
		c-0.134,0.04-0.308,0.06-0.52,0.06c-0.231,0-0.821-0.063-0.821-0.19c0-0.042,0.109-0.298,0.326-0.768
		c0.217-0.469,0.421-0.961,0.612-1.475c0.191-0.514,0.368-1.156,0.531-1.925s0.244-1.583,0.244-2.441
		c0-0.849-0.08-1.654-0.241-2.413c-0.16-0.76-0.343-1.418-0.548-1.974s-0.41-1.056-0.616-1.497
		c-0.205-0.441-0.308-0.681-0.308-0.718c0-0.127,0.59-0.192,0.821-0.192c0.217,0,0.393,0.022,0.527,0.067
		c0.134,0.045,0.275,0.15,0.421,0.315s0.333,0.429,0.559,0.793c0.373,0.623,0.681,1.223,0.923,1.801
		c0.243,0.578,0.428,1.178,0.556,1.801C21.855,6.686,21.919,7.358,21.919,8.08z"/>
	<path style="fill:#010101;" d="M17.449,10.271l-1.833-2.188l1.831-2.19c0.353-0.422,0.296-1.056-0.126-1.409l-0.336-0.281
		c-0.422-0.353-1.056-0.296-1.409,0.126l-1.552,1.855l-1.553-1.854c-0.353-0.422-0.987-0.478-1.409-0.124l-0.335,0.281
		c-0.422,0.353-0.478,0.987-0.124,1.409l1.833,2.188l-1.831,2.19c-0.353,0.422-0.296,1.056,0.126,1.409l0.336,0.281
		c0.422,0.353,1.056,0.296,1.409-0.126l1.552-1.855l1.553,1.854c0.353,0.422,0.987,0.478,1.409,0.124l0.335-0.281
		C17.746,11.326,17.802,10.692,17.449,10.271z"/>
</g>
<g id="Layer_29">
	<g>
		<path style="fill:#010101;" d="M9.115,4.145C9.177,3.94,9.238,3.729,9.303,3.553c0.191-0.514,0.395-1.006,0.612-1.475
			c0.217-0.469,0.326-0.725,0.326-0.768c0-0.127-0.59-0.19-0.821-0.19c-0.212,0-0.386,0.02-0.52,0.06S8.623,1.321,8.472,1.484
			C8.321,1.647,8.135,1.912,7.913,2.28C7.545,2.884,7.236,3.487,6.986,4.088c-0.008,0.019-0.013,0.038-0.02,0.057H9.115z"/>
		<path style="fill:#010101;" d="M9.317,12.307c-0.052-0.142-0.099-0.31-0.149-0.466H7.038c0.236,0.547,0.524,1.111,0.875,1.698
			c0.226,0.363,0.413,0.627,0.559,0.793c0.146,0.165,0.287,0.27,0.421,0.315s0.31,0.067,0.527,0.067
			c0.231,0,0.821-0.064,0.821-0.192c0-0.038-0.103-0.277-0.308-0.718C9.728,13.362,9.523,12.864,9.317,12.307z"/>
	</g>
	<path d="M4.7,3.988c0,0,0.617-0.171,0.617,0.617v1.54h3.147c0.34,0,0.617,0.277,0.617,0.617v2.463c0,0.34-0.276,0.617-0.617,0.617
		H5.317v1.558c0,0.831-0.617,0.599-0.617,0.599l-4.62-4.003L4.7,3.988z M4.7,3.988"/>
</g>
</svg>
