<?xml version="1.0" encoding="iso-8859-1"?>
<!-- Generator: Adobe Illustrator 19.1.0, SVG Export Plug-In . SVG Version: 6.00 Build 0)  -->
<svg version="1.1" id="Layer_1" xmlns="http://www.w3.org/2000/svg" xmlns:xlink="http://www.w3.org/1999/xlink" x="0px" y="0px"
	 viewBox="-391 293 16 16" style="enable-background:new -391 293 16 16;" xml:space="preserve">
<g id="tag">
</g>
<g id="trigger">
</g>
<g id="options">
</g>
<g id="edit">
</g>
<g id="del">
</g>
<g id="home">
</g>
<g id="logout">
</g>
<g id="profile">
</g>
<g id="copy">
</g>
<g id="_x28__x3F__x29_">
</g>
<g id="_x28__x3F__x29__over">
</g>
<g id="_x28_x_x29_">
</g>
<g id="x">
</g>
<g id="menu">
</g>
<g id="_x3E__x3E_">
</g>
<g id="Layer_17">
</g>
<g id="Layer_18">
</g>
<g id="Layer_19">
</g>
<g id="Layer_20">
	<g>
		<path style="fill:#010101;" d="M-391,301.004c0-0.712,0.061-1.379,0.184-1.999c0.123-0.62,0.309-1.231,0.559-1.833
			s0.559-1.205,0.927-1.808c0.222-0.368,0.408-0.634,0.559-0.797c0.151-0.163,0.294-0.264,0.428-0.304
			c0.134-0.04,0.308-0.06,0.52-0.06c0.231,0,0.347,0.064,0.347,0.191c0,0.042-0.109,0.298-0.326,0.768s-0.42,0.961-0.612,1.475
			c-0.191,0.515-0.368,1.156-0.53,1.925c-0.162,0.769-0.244,1.583-0.244,2.442c0,0.849,0.08,1.654,0.241,2.413
			c0.16,0.76,0.343,1.418,0.548,1.974c0.205,0.557,0.41,1.056,0.616,1.497c0.205,0.441,0.308,0.681,0.308,0.718
			c0,0.127-0.116,0.191-0.347,0.191c-0.217,0-0.393-0.022-0.527-0.067c-0.134-0.045-0.275-0.15-0.421-0.315
			c-0.146-0.165-0.333-0.429-0.559-0.793c-0.374-0.622-0.681-1.223-0.924-1.801c-0.243-0.578-0.428-1.178-0.556-1.801
			C-390.937,302.397-391,301.725-391,301.004z"/>
		<path style="fill:#010101;" d="M-381.595,304.131l-1.401-2.059l-1.437,2.059c-0.208,0.288-0.383,0.493-0.527,0.616
			c-0.144,0.123-0.327,0.184-0.548,0.184c-0.245,0-0.454-0.077-0.626-0.23c-0.172-0.153-0.258-0.329-0.258-0.527
			c0-0.203,0.132-0.493,0.396-0.87l1.748-2.505l-1.55-2.088c-0.27-0.345-0.404-0.644-0.404-0.899c0-0.198,0.08-0.37,0.241-0.517
			c0.16-0.146,0.37-0.219,0.63-0.219c0.226,0,0.414,0.064,0.563,0.191c0.149,0.127,0.322,0.328,0.52,0.602l1.253,1.713l1.217-1.713
			c0.202-0.283,0.377-0.486,0.526-0.609c0.149-0.123,0.334-0.184,0.556-0.184c0.255,0,0.466,0.072,0.633,0.216
			c0.167,0.144,0.251,0.317,0.251,0.52c0,0.146-0.034,0.287-0.103,0.421s-0.173,0.294-0.315,0.478l-1.55,2.088l1.748,2.505
			c0.274,0.392,0.41,0.686,0.41,0.885c0,0.203-0.085,0.377-0.255,0.524c-0.17,0.146-0.38,0.219-0.63,0.219
			c-0.222,0-0.409-0.064-0.563-0.191C-381.221,304.613-381.397,304.41-381.595,304.131z"/>
		<path style="fill:#010101;" d="M-375,301.004c0,1.038-0.138,2.003-0.414,2.894c-0.276,0.892-0.695,1.8-1.256,2.724
			c-0.316,0.519-0.566,0.844-0.75,0.977c-0.184,0.132-0.434,0.198-0.75,0.198c-0.236,0-0.354-0.064-0.354-0.191
			c0-0.042,0.099-0.27,0.297-0.683s0.405-0.905,0.619-1.475s0.401-1.242,0.559-2.013c0.158-0.771,0.237-1.582,0.237-2.431
			c0-0.854-0.08-1.668-0.241-2.441c-0.16-0.774-0.347-1.444-0.559-2.01c-0.212-0.566-0.418-1.058-0.616-1.475
			c-0.198-0.418-0.297-0.645-0.297-0.683c0-0.127,0.118-0.191,0.354-0.191c0.33,0,0.585,0.063,0.764,0.188
			c0.179,0.125,0.425,0.449,0.736,0.973c0.278,0.462,0.521,0.918,0.729,1.366c0.208,0.448,0.381,0.896,0.52,1.345
			c0.139,0.449,0.244,0.915,0.315,1.401C-375.036,299.963-375,300.47-375,301.004z"/>
	</g>
</g>
</svg>
