<?xml version="1.0" encoding="utf-8"?>
<!-- Generator: Adobe Illustrator 17.0.2, SVG Export Plug-In . SVG Version: 6.00 Build 0)  -->
<!DOCTYPE svg PUBLIC "-//W3C//DTD SVG 1.1//EN" "http://www.w3.org/Graphics/SVG/1.1/DTD/svg11.dtd">
<svg version="1.1" id="Layer_1" xmlns="http://www.w3.org/2000/svg" xmlns:xlink="http://www.w3.org/1999/xlink" x="0px" y="0px"
	 width="284.335px" height="46px" viewBox="0 0 284.335 46" enable-background="new 0 0 284.335 46" xml:space="preserve">
<g>
	<path fill="#0F9D59" d="M34.193,45.164l11.002,0.003l-0.01-0.024L30.155,0.046v43.398C31.179,44.5,32.604,45.164,34.193,45.164"/>
	<path fill="#0A6E3D" d="M22.597,22.572l6.283,18.849c0.002,0.004,0.003,0.008,0.005,0.012c0.275,0.762,0.716,1.442,1.27,2.011
		V0.047L30.139,0L22.597,22.572z"/>
	<path fill="#4284F4" d="M15.063,0l-0.002,0.017L15.055,0L0.01,45.143L0,45.166l11.002-0.002c1.588,0,3.014-0.664,4.038-1.72
		c0.553-0.569,0.994-1.25,1.269-2.012c0.001-0.004,0.003-0.008,0.004-0.012L30.139,0H15.063z"/>
	<path fill="#77777A" d="M179.18,26.512h6.988l-2.659-7.042c-0.223-0.552-0.49-1.318-0.802-2.298
		c-0.24,0.856-0.503,1.631-0.788,2.325L179.18,26.512z M186.622,27.741h-7.937l-2.725,6.894h-1.51l7.857-19.614h0.868l7.696,19.614
		h-1.536L186.622,27.741z"/>
	<path fill="#77777A" d="M198.347,21.034c-1.586,0-2.777,0.557-3.574,1.67c-0.797,1.114-1.195,2.73-1.195,4.85
		c0,4.115,1.598,6.173,4.797,6.173c1.638,0,2.841-0.476,3.607-1.43c0.766-0.952,1.15-2.524,1.15-4.716v-0.227
		c0-2.245-0.377-3.859-1.129-4.844C201.248,21.527,200.03,21.034,198.347,21.034 M198.347,19.831c1.051,0,1.959,0.192,2.726,0.575
		c0.766,0.382,1.451,1.038,2.058,1.964h0.08c-0.054-1.123-0.08-2.222-0.08-3.301v-5.224h1.309v20.79h-0.868l-0.334-2.218h-0.106
		c-1.105,1.657-2.691,2.485-4.757,2.485c-2.005,0-3.536-0.623-4.596-1.871c-1.061-1.246-1.59-3.063-1.59-5.451
		c0-2.512,0.525-4.431,1.577-5.759C194.815,20.495,196.343,19.831,198.347,19.831"/>
	<path fill="#77777A" d="M224.943,34.636h-1.123l-4.289-15.072c-0.356-1.239-0.623-2.254-0.801-3.046
		c-0.143,0.774-0.345,1.665-0.608,2.672c-0.263,1.007-1.699,6.156-4.309,15.446h-1.149l-5.372-19.535h1.43l3.421,12.587
		c0.133,0.508,0.258,0.978,0.373,1.41c0.116,0.433,0.221,0.837,0.314,1.216c0.093,0.379,0.178,0.743,0.254,1.096
		c0.076,0.351,0.145,0.705,0.208,1.062c0.214-1.211,0.668-3.051,1.362-5.518l3.34-11.852h1.51l3.914,13.602
		c0.455,1.568,0.78,2.833,0.976,3.795c0.115-0.642,0.265-1.323,0.447-2.045c0.182-0.721,1.557-5.838,4.122-15.352h1.376
		L224.943,34.636z"/>
	<path fill="#77777A" d="M233.729,27.354c0,1.996,0.438,3.552,1.315,4.67c0.878,1.118,2.118,1.677,3.722,1.677
		s2.843-0.559,3.721-1.677c0.876-1.118,1.315-2.674,1.315-4.67c0-2.004-0.443-3.558-1.329-4.663
		c-0.886-1.104-2.13-1.657-3.734-1.657c-1.604,0-2.84,0.551-3.708,1.65C234.163,23.784,233.729,25.341,233.729,27.354
		 M245.193,27.354c0,2.37-0.575,4.22-1.724,5.551c-1.149,1.332-2.734,1.998-4.757,1.998c-1.274,0-2.396-0.307-3.367-0.922
		c-0.971-0.614-1.715-1.496-2.231-2.645c-0.517-1.149-0.775-2.477-0.775-3.982c0-2.369,0.575-4.215,1.724-5.538
		s2.725-1.984,4.729-1.984c1.995,0,3.561,0.67,4.697,2.011C244.624,23.183,245.193,25.02,245.193,27.354"/>
	<path fill="#77777A" d="M254.659,19.831c0.614,0,1.274,0.062,1.978,0.188l-0.254,1.269c-0.606-0.151-1.235-0.228-1.884-0.228
		c-1.239,0-2.254,0.526-3.047,1.577c-0.793,1.051-1.189,2.378-1.189,3.981v8.017h-1.322V20.112h1.122l0.133,2.619h0.094
		c0.597-1.069,1.233-1.819,1.91-2.251C252.878,20.047,253.697,19.831,254.659,19.831"/>
	<path fill="#77777A" d="M264.634,21.034c-1.586,0-2.777,0.557-3.574,1.67c-0.797,1.114-1.195,2.73-1.195,4.85
		c0,4.115,1.598,6.173,4.797,6.173c1.638,0,2.841-0.476,3.607-1.43c0.766-0.952,1.149-2.524,1.149-4.716v-0.227
		c0-2.245-0.377-3.859-1.129-4.844C267.535,21.527,266.317,21.034,264.634,21.034 M264.634,19.831c1.051,0,1.959,0.192,2.726,0.575
		c0.766,0.382,1.452,1.038,2.058,1.964h0.08c-0.053-1.123-0.08-2.222-0.08-3.301v-5.224h1.309v20.79h-0.868l-0.334-2.218h-0.106
		c-1.105,1.657-2.691,2.485-4.757,2.485c-2.005,0-3.536-0.623-4.596-1.871c-1.061-1.246-1.591-3.063-1.591-5.451
		c0-2.512,0.526-4.431,1.577-5.759C261.102,20.495,262.63,19.831,264.634,19.831"/>
	<path fill="#77777A" d="M284.335,30.855c0,1.301-0.495,2.3-1.483,2.999c-0.989,0.7-2.392,1.049-4.209,1.049
		c-1.942,0-3.483-0.298-4.623-0.895v-1.43c1.461,0.73,3.002,1.096,4.623,1.096c1.434,0,2.522-0.239,3.267-0.715
		c0.743-0.475,1.116-1.11,1.116-1.903c0-0.731-0.296-1.345-0.889-1.844c-0.592-0.5-1.565-0.989-2.92-1.47
		c-1.452-0.525-2.471-0.977-3.059-1.356c-0.588-0.378-1.032-0.806-1.329-1.282c-0.299-0.476-0.448-1.058-0.448-1.744
		c0-1.087,0.457-1.946,1.37-2.579c0.912-0.632,2.188-0.949,3.828-0.949c1.567,0,3.054,0.295,4.462,0.883l-0.494,1.202
		c-1.425-0.587-2.748-0.882-3.968-0.882c-1.185,0-2.125,0.196-2.82,0.588c-0.695,0.392-1.042,0.936-1.042,1.63
		c0,0.757,0.269,1.363,0.808,1.817c0.539,0.455,1.592,0.962,3.161,1.524c1.309,0.472,2.262,0.898,2.859,1.276
		c0.597,0.379,1.045,0.809,1.342,1.289C284.186,29.639,284.335,30.204,284.335,30.855"/>
	<path fill="#77777A" d="M134.914,29.002c0.823-0.832,0.898-1.983,0.898-2.631c0-2.589-1.548-6.62-4.519-6.62
		c-0.936,0-1.939,0.464-2.515,1.184c-0.609,0.756-0.791,1.724-0.791,2.664c0,2.412,1.4,6.415,4.488,6.415
		C133.365,30.014,134.337,29.58,134.914,29.002 M133.87,35.841c-0.284-0.033-0.465-0.033-0.82-0.033
		c-0.327,0-2.266,0.066-3.771,0.572c-0.79,0.292-3.087,1.16-3.087,3.713c0,2.554,2.483,4.396,6.32,4.396
		c3.435,0,5.268-1.661,5.268-3.891C137.781,38.76,136.6,37.798,133.87,35.841 M136.421,19.852c0.821,0.689,2.545,2.127,2.545,4.862
		c0,2.669-1.513,3.926-3.018,5.12c-0.461,0.47-1,0.968-1,1.764c0,0.79,0.539,1.22,0.932,1.545l1.291,1.006
		c1.577,1.333,3.015,2.552,3.015,5.046c0,3.381-3.268,6.805-9.438,6.805c-5.198,0-7.708-2.485-7.708-5.154
		c0-1.292,0.641-3.125,2.764-4.392c2.219-1.364,5.235-1.548,6.848-1.656c-0.497-0.649-1.081-1.333-1.081-2.448
		c0-0.609,0.185-0.974,0.364-1.401c-0.399,0.035-0.79,0.07-1.151,0.07c-3.801,0-5.951-2.849-5.951-5.654
		c0-1.663,0.758-3.492,2.296-4.823c2.04-1.698,4.48-1.986,6.419-1.986h7.39l-2.299,1.297H136.421z"/>
	<path fill="#77777A" d="M118.31,32.354c0.861-1.15,1.081-2.581,1.081-3.994c0-3.163-1.507-9.2-5.945-9.2
		c-1.187,0-2.368,0.464-3.229,1.22c-1.395,1.255-1.651,2.836-1.651,4.387c0,3.561,1.762,9.419,6.095,9.419
		C116.052,34.188,117.488,33.51,118.31,32.354 M113.834,35.266c-5.693,0-8.738-4.462-8.738-8.483c0-4.711,3.828-8.738,9.276-8.738
		c5.262,0,8.557,4.135,8.557,8.482C122.93,30.771,119.675,35.266,113.834,35.266"/>
	<path fill="#77777A" d="M98.9,32.354c0.865-1.15,1.074-2.581,1.074-3.994c0-3.163-1.501-9.2-5.946-9.2
		c-1.182,0-2.358,0.464-3.221,1.22c-1.397,1.255-1.648,2.836-1.648,4.387c0,3.561,1.754,9.419,6.084,9.419
		C96.644,34.188,98.078,33.51,98.9,32.354 M94.422,35.266c-5.697,0-8.738-4.462-8.738-8.483c0-4.711,3.83-8.738,9.275-8.738
		c5.267,0,8.564,4.135,8.564,8.482C103.524,30.771,100.262,35.266,94.422,35.266"/>
	<path fill="#77777A" d="M82.945,34.701l-5.146,1.194c-2.091,0.326-3.959,0.62-5.939,0.62c-9.938,0-13.715-7.344-13.715-13.09
		c0-7.013,5.364-13.517,14.539-13.517c1.946,0,3.824,0.288,5.514,0.757c2.694,0.761,3.962,1.707,4.748,2.24l-2.981,2.853
		l-1.263,0.291l0.898-1.446c-1.229-1.19-3.456-3.388-7.704-3.388c-5.691,0-9.974,4.334-9.974,10.659
		c0,6.795,4.9,13.192,12.745,13.192c2.307,0,3.493-0.474,4.574-0.906v-5.818l-5.438,0.284l2.874-1.547h7.633l-0.931,0.903
		c-0.254,0.213-0.292,0.284-0.361,0.571c-0.038,0.332-0.074,1.384-0.074,1.746V34.701z"/>
	<path fill="#77777A" d="M147.801,33.667c-1.192-0.114-1.44-0.332-1.44-1.737v-0.402V11.47c0.01-0.082,0.014-0.157,0.023-0.233
		c0.145-1.272,0.507-1.481,1.619-2.139h-5.149L140.15,10.4h2.757v0.019l-0.003-0.006v21.116v1.197c0,0.723-0.145,0.828-0.976,1.907
		h6.374l1.342-0.794C149.027,33.775,148.413,33.731,147.801,33.667"/>
	<path fill="#77777A" d="M159.094,23.297c0.681-0.253,1.036-0.466,1.036-0.966c0-1.444-1.609-3.096-3.541-3.096
		c-1.432,0-4.116,1.121-4.116,4.996c0,0.611,0.077,1.256,0.108,1.896L159.094,23.297z M162.454,33.994
		c-0.393,0.219-0.789,0.474-1.183,0.649c-1.175,0.544-2.391,0.681-3.464,0.681c-1.146,0-2.93-0.069-4.764-1.406
		c-2.526-1.783-3.647-4.877-3.647-7.57c0-5.565,4.513-8.292,8.195-8.292c1.29,0,2.62,0.327,3.681,1.003
		c1.789,1.182,2.26,2.726,2.504,3.553l-8.396,3.41l-2.76,0.218c0.892,4.562,3.971,7.216,7.372,7.216c1.819,0,3.14-0.646,4.358-1.25
		L162.454,33.994z"/>
</g>
</svg>
