<?xml version="1.0" encoding="iso-8859-1"?>
<!-- Generator: Adobe Illustrator 18.1.1, SVG Export Plug-In . SVG Version: 6.00 Build 0)  -->
<svg version="1.1" id="Layer_2" xmlns="http://www.w3.org/2000/svg" xmlns:xlink="http://www.w3.org/1999/xlink" x="0px" y="0px"
	 viewBox="0 0 35 35" style="enable-background:new 0 0 34 34;" xml:space="preserve">
<g>

<path style="fill-rule:evenodd;clip-rule:evenodd;fill:#EDEDED;" d="M19.436,34h-4.872c-0.897,0-1.624-0.738-1.624-1.649
	l0.812-3.299c0-0.911,0.727-1.649,1.624-1.649h3.248c0.897,0,1.624,0.738,1.624,1.649l0.812,3.299C21.06,33.262,20.333,34,19.436,34
	z"/>
<path style="fill-rule:evenodd;clip-rule:evenodd;fill:#666666;" d="M14.564,0h4.872c0.897,0,1.624,0.738,1.624,1.649l-0.812,3.299
	c0,0.911-0.727,1.649-1.624,1.649h-3.248c-0.897,0-1.624-0.738-1.624-1.649L12.94,1.649C12.94,0.738,13.667,0,14.564,0z"/>
<path style="fill-rule:evenodd;clip-rule:evenodd;fill:#cecece;" d="M0,19.436l0-4.872c0-0.897,0.738-1.624,1.649-1.624l3.299,0.812
	c0.911,0,1.649,0.727,1.649,1.624v3.248c0,0.897-0.738,1.624-1.649,1.624L1.649,21.06C0.738,21.06,0,20.333,0,19.436z"/>
<path style="fill-rule:evenodd;clip-rule:evenodd;fill:#EDEDED;" d="M34,14.564v4.872c0,0.897-0.738,1.624-1.649,1.624l-3.299-0.812
	c-0.911,0-1.649-0.727-1.649-1.624v-3.248c0-0.897,0.738-1.624,1.649-1.624l3.299-0.812C33.262,12.94,34,13.667,34,14.564z"/>
<path style="fill-rule:evenodd;clip-rule:evenodd;fill:#EDEDED;" d="M6.702,30.743l-3.445-3.445
	c-0.634-0.634-0.626-1.67,0.018-2.314l2.907-1.758c0.644-0.644,1.68-0.652,2.314-0.018l2.297,2.297
	c0.634,0.634,0.626,1.67-0.018,2.315l-1.758,2.907C8.372,31.369,7.336,31.377,6.702,30.743z"/>
<path style="fill-rule:evenodd;clip-rule:evenodd;fill:#EDEDED;" d="M27.298,3.257l3.445,3.445c0.634,0.634,0.626,1.67-0.018,2.315
	l-2.907,1.758c-0.644,0.644-1.68,0.652-2.314,0.018l-2.297-2.297c-0.634-0.634-0.626-1.67,0.018-2.314l1.758-2.907
	C25.628,2.631,26.664,2.623,27.298,3.257z"/>
<path style="fill-rule:evenodd;clip-rule:evenodd;fill:#999999;" d="M3.257,6.702l3.445-3.445c0.634-0.634,1.67-0.626,2.314,0.018
	l1.758,2.907c0.644,0.644,0.652,1.68,0.018,2.314l-2.297,2.297c-0.634,0.634-1.67,0.626-2.315-0.018L3.275,9.016
	C2.631,8.372,2.623,7.336,3.257,6.702z"/>
<path style="fill-rule:evenodd;clip-rule:evenodd;fill:#EDEDED;" d="M30.743,27.298l-3.445,3.445
	c-0.634,0.634-1.67,0.626-2.315-0.018l-1.758-2.907c-0.644-0.644-0.652-1.68-0.018-2.314l2.297-2.297
	c0.634-0.634,1.67-0.626,2.314,0.018l2.907,1.758C31.369,25.628,31.377,26.664,30.743,27.298z" />


<animateTransform
            attributeName="transform"
            type="rotate"
            from="0 17 17"
            to="360 17 17"
            dur="2s"
            repeatCount="indefinite"/>
    </g>
</svg>
